RedHatDisplay-Italic.ufo
<glyph name="numbersign" format="2">
  <advance width="678"/>
  <unicode hex="0023"/>
  <outline>
    <contour>
      <point x="6" y="0" type="line"/>
      <point x="74" y="0" type="line"/>
      <point x="182" y="219" type="line"/>
      <point x="375" y="219" type="line"/>
      <point x="267" y="0" type="line"/>
      <point x="335" y="0" type="line"/>
      <point x="443" y="219" type="line"/>
      <point x="575" y="219" type="line"/>
      <point x="587" y="277" type="line"/>
      <point x="471" y="277" type="line"/>
      <point x="543" y="423" type="line"/>
      <point x="668" y="423" type="line"/>
      <point x="680" y="481" type="line"/>
      <point x="571" y="481" type="line"/>
      <point x="679" y="700" type="line"/>
      <point x="611" y="700" type="line"/>
      <point x="503" y="481" type="line"/>
      <point x="311" y="481" type="line"/>
      <point x="419" y="700" type="line"/>
      <point x="350" y="700" type="line"/>
      <point x="242" y="481" type="line"/>
      <point x="110" y="481" type="line"/>
      <point x="97" y="423" type="line"/>
      <point x="214" y="423" type="line"/>
      <point x="142" y="277" type="line"/>
      <point x="17" y="277" type="line"/>
      <point x="5" y="219" type="line"/>
      <point x="114" y="219" type="line"/>
    </contour>
    <contour>
      <point x="211" y="277" type="line"/>
      <point x="282" y="423" type="line"/>
      <point x="475" y="423" type="line"/>
      <point x="403" y="277" type="line"/>
    </contour>
  </outline>
</glyph>
<glyph name="ampersand" format="2">
  <advance width="640"/>
  <unicode hex="0026"/>
  <outline>
    <contour>
      <point x="588" y="39" type="line"/>
      <point x="559" y="64"/>
      <point x="529" y="93"/>
      <point x="499" y="124" type="curve"/>
      <point x="551" y="181"/>
      <point x="594" y="251"/>
      <point x="629" y="335" type="curve"/>
      <point x="565" y="353" type="line"/>
      <point x="537" y="282"/>
      <point x="500" y="220"/>
      <point x="457" y="170" type="curve"/>
      <point x="403" y="233"/>
      <point x="350" y="303"/>
      <point x="303" y="376" type="curve"/>
      <point x="359" y="404" type="line" smooth="yes"/>
      <point x="462" y="455"/>
      <point x="505" y="509"/>
      <point x="505" y="582" type="curve" smooth="yes"/>
      <point x="505" y="658"/>
      <point x="445" y="711"/>
      <point x="359" y="711" type="curve" smooth="yes"/>
      <point x="255" y="711"/>
      <point x="177" y="632"/>
      <point x="177" y="526" type="curve" smooth="yes"/>
      <point x="177" y="482"/>
      <point x="187" y="446"/>
      <point x="213" y="398" type="curve"/>
      <point x="65" y="330"/>
      <point x="13" y="269"/>
      <point x="13" y="171" type="curve" smooth="yes"/>
      <point x="13" y="62"/>
      <point x="102" y="-11"/>
      <point x="234" y="-11" type="curve" smooth="yes"/>
      <point x="313" y="-11"/>
      <point x="386" y="18"/>
      <point x="450" y="73" type="curve"/>
      <point x="480" y="42"/>
      <point x="510" y="13"/>
      <point x="539" y="-11" type="curve"/>
    </contour>
    <contour>
      <point x="245" y="531" type="curve" smooth="yes"/>
      <point x="245" y="602"/>
      <point x="291" y="653"/>
      <point x="354" y="653" type="curve" smooth="yes"/>
      <point x="404" y="653"/>
      <point x="435" y="621"/>
      <point x="435" y="573" type="curve" smooth="yes"/>
      <point x="435" y="525"/>
      <point x="405" y="489"/>
      <point x="338" y="456" type="curve" smooth="yes"/>
      <point x="277" y="426" type="line"/>
      <point x="254" y="468"/>
      <point x="245" y="498"/>
    </contour>
    <contour>
      <point x="84" y="184" type="curve" smooth="yes"/>
      <point x="84" y="248"/>
      <point x="127" y="296"/>
      <point x="240" y="347" type="curve"/>
      <point x="300" y="253"/>
      <point x="354" y="181"/>
      <point x="409" y="118" type="curve"/>
      <point x="358" y="75"/>
      <point x="301" y="51"/>
      <point x="241" y="51" type="curve" smooth="yes"/>
      <point x="146" y="51"/>
      <point x="84" y="104"/>
    </contour>
  </outline>
</glyph>
<glyph name="asterisk" format="2">
  <advance width="437"/>
  <unicode hex="002A"/>
  <outline>
    <contour>
      <point x="211" y="341" type="line"/>
      <point x="264" y="341" type="line"/>
      <point x="291" y="479" type="line"/>
      <point x="391" y="398" type="line"/>
      <point x="429" y="440" type="line"/>
      <point x="323" y="520" type="line"/>
      <point x="458" y="584" type="line"/>
      <point x="436" y="631" type="line"/>
      <point x="310" y="568" type="line"/>
      <point x="340" y="700" type="line"/>
      <point x="287" y="700" type="line"/>
      <point x="261" y="568" type="line"/>
      <point x="162" y="648" type="line"/>
      <point x="126" y="607" type="line"/>
      <point x="229" y="528" type="line"/>
      <point x="92" y="462" type="line"/>
      <point x="113" y="414" type="line"/>
      <point x="242" y="480" type="line"/>
    </contour>
  </outline>
</glyph>
<glyph name="hyphen" format="2">
  <advance width="439"/>
  <unicode hex="002D"/>
  <outline>
    <contour>
      <point x="61" y="314" type="line"/>
      <point x="47" y="248" type="line"/>
      <point x="389" y="248" type="line"/>
      <point x="403" y="314" type="line"/>
    </contour>
  </outline>
</glyph>
<glyph name="period" format="2">
  <advance width="250"/>
  <unicode hex="002E"/>
  <outline>
    <contour>
      <point x="76" y="-6" type="curve" smooth="yes"/>
      <point x="105" y="-6"/>
      <point x="132" y="21"/>
      <point x="132" y="50" type="curve" smooth="yes"/>
      <point x="132" y="76"/>
      <point x="113" y="96"/>
      <point x="88" y="96" type="curve" smooth="yes"/>
      <point x="58" y="96"/>
      <point x="31" y="69"/>
      <point x="31" y="39" type="curve" smooth="yes"/>
      <point x="31" y="14"/>
      <point x="50" y="-6"/>
    </contour>
  </outline>
</glyph>
<glyph name="one" format="2">
  <advance width="284"/>
  <unicode hex="0031"/>
  <outline>
    <contour>
      <point x="89" y="0" type="line"/>
      <point x="161" y="0" type="line"/>
      <point x="310" y="700" type="line"/>
      <point x="263" y="700" type="line"/>
      <point x="109" y="638" type="line"/>
      <point x="95" y="571" type="line"/>
      <point x="222" y="623" type="line"/>
    </contour>
  </outline>
</glyph>
<glyph name="four" format="2">
  <advance width="606"/>
  <unicode hex="0034"/>
  <outline>
    <contour>
      <point x="363" y="0" type="line"/>
      <point x="434" y="0" type="line"/>
      <point x="474" y="187" type="line"/>
      <point x="557" y="187" type="line"/>
      <point x="570" y="250" type="line"/>
      <point x="487" y="250" type="line"/>
      <point x="583" y="700" type="line"/>
      <point x="506" y="700" type="line"/>
      <point x="24" y="245" type="line"/>
      <point x="12" y="187" type="line"/>
      <point x="403" y="187" type="line"/>
    </contour>
    <contour>
      <point x="116" y="250" type="line"/>
      <point x="491" y="605" type="line"/>
      <point x="416" y="250" type="line"/>
    </contour>
  </outline>
</glyph>
<glyph name="question" format="2">
  <advance width="496"/>
  <unicode hex="003F"/>
  <outline>
    <contour>
      <point x="172" y="199" type="curve"/>
      <point x="234" y="199" type="line"/>
      <point x="244" y="267"/>
      <point x="270" y="308"/>
      <point x="325" y="339" type="curve" smooth="yes"/>
      <point x="387" y="374" type="line" smooth="yes"/>
      <point x="478" y="427"/>
      <point x="518" y="483"/>
      <point x="518" y="557" type="curve" smooth="yes"/>
      <point x="518" y="649"/>
      <point x="438" y="711"/>
      <point x="325" y="711" type="curve" smooth="yes"/>
      <point x="243" y="711"/>
      <point x="161" y="673"/>
      <point x="94" y="606" type="curve"/>
      <point x="140" y="565" type="line"/>
      <point x="191" y="615"/>
      <point x="253" y="645"/>
      <point x="315" y="645" type="curve" smooth="yes"/>
      <point x="392" y="645"/>
      <point x="446" y="605"/>
      <point x="446" y="548" type="curve" smooth="yes"/>
      <point x="446" y="502"/>
      <point x="412" y="457"/>
      <point x="356" y="424" type="curve" smooth="yes"/>
      <point x="292" y="388" type="line" smooth="yes"/>
      <point x="219" y="347"/>
      <point x="186" y="294"/>
    </contour>
    <contour>
      <point x="166" y="-6" type="curve" smooth="yes"/>
      <point x="196" y="-6"/>
      <point x="223" y="21"/>
      <point x="223" y="50" type="curve" smooth="yes"/>
      <point x="223" y="76"/>
      <point x="204" y="96"/>
      <point x="178" y="96" type="curve" smooth="yes"/>
      <point x="148" y="96"/>
      <point x="122" y="69"/>
      <point x="122" y="39" type="curve" smooth="yes"/>
      <point x="122" y="14"/>
      <point x="141" y="-6"/>
    </contour>
  </outline>
</glyph>
<glyph name="at" format="2">
  <advance width="772"/>
  <unicode hex="0040"/>
  <outline>
    <contour>
      <point x="398" y="-144" type="curve" smooth="yes"/>
      <point x="467" y="-144"/>
      <point x="532" y="-128"/>
      <point x="590" y="-99" type="curve"/>
      <point x="572" y="-58" type="line"/>
      <point x="522" y="-85"/>
      <point x="463" y="-99"/>
      <point x="401" y="-99" type="curve" smooth="yes"/>
      <point x="221" y="-99"/>
      <point x="89" y="31"/>
      <point x="89" y="209" type="curve" smooth="yes"/>
      <point x="89" y="391"/>
      <point x="222" y="532"/>
      <point x="393" y="532" type="curve"/>
      <point x="557" y="532"/>
      <point x="681" y="419"/>
      <point x="681" y="267" type="curve" smooth="yes"/>
      <point x="681" y="172"/>
      <point x="628" y="99"/>
      <point x="557" y="99" type="curve" smooth="yes"/>
      <point x="512" y="99"/>
      <point x="492" y="126"/>
      <point x="502" y="174" type="curve" smooth="yes"/>
      <point x="541" y="366" type="line"/>
      <point x="485" y="366" type="line"/>
      <point x="480" y="340" type="line"/>
      <point x="455" y="364"/>
      <point x="418" y="379"/>
      <point x="379" y="379" type="curve" smooth="yes"/>
      <point x="285" y="379"/>
      <point x="209" y="300"/>
      <point x="209" y="202" type="curve" smooth="yes"/>
      <point x="209" y="116"/>
      <point x="271" y="51"/>
      <point x="353" y="51" type="curve" smooth="yes"/>
      <point x="388" y="51"/>
      <point x="426" y="67"/>
      <point x="459" y="96" type="curve"/>
      <point x="476" y="70"/>
      <point x="508" y="55"/>
      <point x="552" y="55" type="curve" smooth="yes"/>
      <point x="653" y="55"/>
      <point x="728" y="146"/>
      <point x="728" y="269" type="curve" smooth="yes"/>
      <point x="728" y="443"/>
      <point x="584" y="576"/>
      <point x="395" y="576" type="curve"/>
      <point x="192" y="576"/>
      <point x="40" y="417"/>
      <point x="40" y="207" type="curve" smooth="yes"/>
      <point x="40" y="6"/>
      <point x="194" y="-144"/>
    </contour>
    <contour>
      <point x="364" y="98" type="curve" smooth="yes"/>
      <point x="306" y="98"/>
      <point x="265" y="142"/>
      <point x="265" y="206" type="curve" smooth="yes"/>
      <point x="265" y="274"/>
      <point x="316" y="331"/>
      <point x="377" y="331" type="curve" smooth="yes"/>
      <point x="416" y="331"/>
      <point x="450" y="314"/>
      <point x="469" y="285" type="curve"/>
      <point x="447" y="179" type="line" smooth="yes"/>
      <point x="444" y="162"/>
      <point x="443" y="147"/>
      <point x="445" y="133" type="curve"/>
      <point x="422" y="110"/>
      <point x="394" y="98"/>
    </contour>
  </outline>
</glyph>
<glyph name="C" format="2">
  <advance width="709"/>
  <unicode hex="0043"/>
  <anchor x="453" y="700" name="top"/>
  <anchor x="387" y="0" name="bottom"/>
  <outline>
    <contour>
      <point x="396" y="-11" type="curve" smooth="yes"/>
      <point x="493" y="-11"/>
      <point x="591" y="27"/>
      <point x="667" y="95" type="curve"/>
      <point x="627" y="148" type="line"/>
      <point x="567" y="92"/>
      <point x="484" y="59"/>
      <point x="401" y="59" type="curve" smooth="yes"/>
      <point x="251" y="59"/>
      <point x="141" y="171"/>
      <point x="141" y="322" type="curve" smooth="yes"/>
      <point x="141" y="499"/>
      <point x="274" y="639"/>
      <point x="442" y="639" type="curve" smooth="yes"/>
      <point x="534" y="639"/>
      <point x="614" y="600"/>
      <point x="661" y="532" type="curve"/>
      <point x="718" y="584" type="line"/>
      <point x="657" y="665"/>
      <point x="562" y="709"/>
      <point x="446" y="709" type="curve" smooth="yes"/>
      <point x="237" y="709"/>
      <point x="64" y="533"/>
      <point x="64" y="319" type="curve" smooth="yes"/>
      <point x="64" y="131"/>
      <point x="207" y="-11"/>
    </contour>
  </outline>
</glyph>
<glyph name="E" format="2">
  <advance width="604"/>
  <unicode hex="0045"/>
  <anchor x="410" y="700" name="top"/>
  <anchor x="517" y="0" name="bottom"/>
  <outline>
    <contour>
      <point x="22" y="0" type="line"/>
      <point x="517" y="0" type="line"/>
      <point x="531" y="68" type="line"/>
      <point x="111" y="68" type="line"/>
      <point x="165" y="320" type="line"/>
      <point x="437" y="320" type="line"/>
      <point x="451" y="387" type="line"/>
      <point x="179" y="387" type="line"/>
      <point x="232" y="632" type="line"/>
      <point x="647" y="632" type="line"/>
      <point x="662" y="700" type="line"/>
      <point x="171" y="700" type="line"/>
    </contour>
  </outline>
</glyph>
<glyph name="F" format="2">
  <advance width="595"/>
  <unicode hex="0046"/>
  <outline>
    <contour>
      <point x="22" y="0" type="line"/>
      <point x="97" y="0" type="line"/>
      <point x="164" y="315" type="line"/>
      <point x="437" y="315" type="line"/>
      <point x="451" y="382" type="line"/>
      <point x="178" y="382" type="line"/>
      <point x="232" y="632" type="line"/>
      <point x="647" y="632" type="line"/>
      <point x="662" y="700" type="line"/>
      <point x="171" y="700" type="line"/>
    </contour>
  </outline>
</glyph>
<glyph name="H" format="2">
  <advance width="701"/>
  <unicode hex="0048"/>
  <anchor x="446" y="700" name="top"/>
  <outline>
    <contour>
      <point x="22" y="0" type="line"/>
      <point x="97" y="0" type="line"/>
      <point x="165" y="318" type="line"/>
      <point x="564" y="318" type="line"/>
      <point x="496" y="0" type="line"/>
      <point x="572" y="0" type="line"/>
      <point x="721" y="700" type="line"/>
      <point x="645" y="700" type="line"/>
      <point x="578" y="387" type="line"/>
      <point x="179" y="387" type="line"/>
      <point x="246" y="700" type="line"/>
      <point x="171" y="700" type="line"/>
    </contour>
  </outline>
</glyph>
<glyph name="K" format="2">
  <advance width="604"/>
  <unicode hex="004B"/>
  <anchor x="275" y="0" name="bottom"/>
  <outline>
    <contour>
      <point x="22" y="0" type="line"/>
      <point x="97" y="0" type="line"/>
      <point x="170" y="345" type="line"/>
      <point x="459" y="0" type="line"/>
      <point x="557" y="0" type="line"/>
      <point x="254" y="358" type="line"/>
      <point x="702" y="700" type="line"/>
      <point x="598" y="700" type="line"/>
      <point x="177" y="377" type="line"/>
      <point x="246" y="700" type="line"/>
      <point x="171" y="700" type="line"/>
    </contour>
  </outline>
</glyph>
<glyph name="M" format="2">
  <advance width="830"/>
  <unicode hex="004D"/>
  <outline>
    <contour>
      <point x="22" y="0" type="line"/>
      <point x="93" y="0" type="line"/>
      <point x="223" y="613" type="line"/>
      <point x="372" y="50" type="line"/>
      <point x="760" y="611" type="line"/>
      <point x="631" y="0" type="line"/>
      <point x="701" y="0" type="line"/>
      <point x="850" y="700" type="line"/>
      <point x="741" y="700" type="line"/>
      <point x="402" y="202" type="line"/>
      <point x="273" y="700" type="line"/>
      <point x="171" y="700" type="line"/>
    </contour>
  </outline>
</glyph>
<glyph name="N" format="2">
  <advance width="711"/>
  <unicode hex="004E"/>
  <anchor x="451" y="700" name="top"/>
  <anchor x="302" y="0" name="bottom"/>
  <outline>
    <contour>
      <point x="22" y="0" type="line"/>
      <point x="93" y="0" type="line"/>
      <point x="217" y="592" type="line"/>
      <point x="518" y="0" type="line"/>
      <point x="581" y="0" type="line"/>
      <point x="730" y="700" type="line"/>
      <point x="659" y="700" type="line"/>
      <point x="537" y="123" type="line"/>
      <point x="243" y="700" type="line"/>
      <point x="171" y="700" type="line"/>
    </contour>
  </outline>
</glyph>
<glyph name="Q" format="2">
  <advance width="793"/>
  <unicode hex="0051"/>
  <outline>
    <contour>
      <point x="391" y="-11" type="curve" smooth="yes"/>
      <point x="458" y="-11"/>
      <point x="521" y="7"/>
      <point x="575" y="39" type="curve"/>
      <point x="609" y="-16" type="line"/>
      <point x="686" y="-11" type="line"/>
      <point x="631" y="78" type="line"/>
      <point x="716" y="151"/>
      <point x="771" y="260"/>
      <point x="771" y="380" type="curve" smooth="yes"/>
      <point x="771" y="568"/>
      <point x="629" y="711"/>
      <point x="442" y="711" type="curve" smooth="yes"/>
      <point x="234" y="711"/>
      <point x="62" y="533"/>
      <point x="62" y="320" type="curve" smooth="yes"/>
      <point x="62" y="132"/>
      <point x="204" y="-11"/>
    </contour>
    <contour>
      <point x="396" y="60" type="curve" smooth="yes"/>
      <point x="248" y="60"/>
      <point x="138" y="174"/>
      <point x="138" y="324" type="curve" smooth="yes"/>
      <point x="138" y="497"/>
      <point x="273" y="640"/>
      <point x="437" y="640" type="curve" smooth="yes"/>
      <point x="585" y="640"/>
      <point x="695" y="526"/>
      <point x="695" y="376" type="curve" smooth="yes"/>
      <point x="695" y="282"/>
      <point x="656" y="198"/>
      <point x="593" y="140" type="curve"/>
      <point x="540" y="226" type="line"/>
      <point x="464" y="222" type="line"/>
      <point x="539" y="99" type="line"/>
      <point x="496" y="74"/>
      <point x="448" y="60"/>
    </contour>
  </outline>
</glyph>
<glyph name="R" format="2">
  <advance width="632"/>
  <unicode hex="0052"/>
  <anchor x="404" y="700" name="top"/>
  <anchor x="260" y="0" name="bottom"/>
  <outline>
    <contour>
      <point x="22" y="0" type="line"/>
      <point x="97" y="0" type="line"/>
      <point x="161" y="301" type="line"/>
      <point x="378" y="301" type="line"/>
      <point x="474" y="0" type="line"/>
      <point x="553" y="0" type="line"/>
      <point x="454" y="306" type="line"/>
      <point x="567" y="326"/>
      <point x="646" y="413"/>
      <point x="646" y="525" type="curve" smooth="yes"/>
      <point x="646" y="632"/>
      <point x="570" y="700"/>
      <point x="448" y="700" type="curve" smooth="yes"/>
      <point x="171" y="700" type="line"/>
    </contour>
    <contour>
      <point x="175" y="366" type="line"/>
      <point x="231" y="631" type="line"/>
      <point x="436" y="631" type="line" smooth="yes"/>
      <point x="519" y="631"/>
      <point x="571" y="588"/>
      <point x="571" y="519" type="curve" smooth="yes"/>
      <point x="571" y="430"/>
      <point x="499" y="366"/>
      <point x="398" y="366" type="curve" smooth="yes"/>
    </contour>
  </outline>
</glyph>
<glyph name="S" format="2">
  <advance width="590"/>
  <unicode hex="0053"/>
  <note>
Version created Fri Aug  3 17:49:29 2018
</note>
  <anchor x="341" y="700" name="top"/>
  <anchor x="284" y="0" name="bottom"/>
  <outline>
    <contour>
      <point x="291" y="-10" type="curve" smooth="yes"/>
      <point x="452" y="-10"/>
      <point x="557" y="76"/>
      <point x="557" y="207" type="curve" smooth="yes"/>
      <point x="557" y="297"/>
      <point x="500" y="351"/>
      <point x="370" y="384" type="curve" smooth="yes"/>
      <point x="276" y="407" type="line" smooth="yes"/>
      <point x="190" y="430"/>
      <point x="152" y="464"/>
      <point x="152" y="520" type="curve" smooth="yes"/>
      <point x="152" y="595"/>
      <point x="216" y="643"/>
      <point x="318" y="643" type="curve" smooth="yes"/>
      <point x="400" y="643"/>
      <point x="481" y="607"/>
      <point x="552" y="540" type="curve"/>
      <point x="601" y="596" type="line"/>
      <point x="524" y="668"/>
      <point x="424" y="709"/>
      <point x="324" y="709" type="curve" smooth="yes"/>
      <point x="174" y="709"/>
      <point x="78" y="632"/>
      <point x="78" y="512" type="curve" smooth="yes"/>
      <point x="78" y="427"/>
      <point x="134" y="370"/>
      <point x="247" y="340" type="curve" smooth="yes"/>
      <point x="342" y="316" type="line" smooth="yes"/>
      <point x="442" y="290"/>
      <point x="482" y="256"/>
      <point x="482" y="196" type="curve" smooth="yes"/>
      <point x="482" y="113"/>
      <point x="405" y="55"/>
      <point x="295" y="55" type="curve" smooth="yes"/>
      <point x="200" y="55"/>
      <point x="116" y="102"/>
      <point x="55" y="188" type="curve"/>
      <point x="-1" y="140" type="line"/>
      <point x="70" y="43"/>
      <point x="172" y="-10"/>
    </contour>
  </outline>
</glyph>
<glyph name="U" format="2">
  <advance width="690"/>
  <unicode hex="0055"/>
  <anchor x="438" y="700" name="top"/>
  <anchor x="401" y="0" name="bottom"/>
  <outline>
    <contour>
      <point x="318" y="-11" type="curve" smooth="yes"/>
      <point x="480" y="-11"/>
      <point x="594" y="96"/>
      <point x="635" y="290" type="curve" smooth="yes"/>
      <point x="723" y="700" type="line"/>
      <point x="647" y="700" type="line"/>
      <point x="560" y="293" type="line" smooth="yes"/>
      <point x="529" y="147"/>
      <point x="440" y="60"/>
      <point x="321" y="60" type="curve" smooth="yes"/>
      <point x="189" y="60"/>
      <point x="117" y="159"/>
      <point x="147" y="299" type="curve" smooth="yes"/>
      <point x="233" y="700" type="line"/>
      <point x="157" y="700" type="line"/>
      <point x="73" y="303" type="line" smooth="yes"/>
      <point x="33" y="119"/>
      <point x="134" y="-11"/>
    </contour>
  </outline>
</glyph>
<glyph name="V" format="2">
  <advance width="666"/>
  <unicode hex="0056"/>
  <outline>
    <contour>
      <point x="235" y="0" type="line"/>
      <point x="327" y="0" type="line"/>
      <point x="757" y="700" type="line"/>
      <point x="676" y="700" type="line"/>
      <point x="294" y="71" type="line"/>
      <point x="177" y="700" type="line"/>
      <point x="99" y="700" type="line"/>
    </contour>
  </outline>
</glyph>
<glyph name="W" format="2">
  <advance width="865"/>
  <unicode hex="0057"/>
  <anchor x="525" y="700" name="top"/>
  <outline>
    <contour>
      <point x="129" y="0" type="line"/>
      <point x="205" y="0" type="line"/>
      <point x="505" y="593" type="line"/>
      <point x="553" y="0" type="line"/>
      <point x="630" y="0" type="line"/>
      <point x="927" y="700" type="line"/>
      <point x="850" y="700" type="line"/>
      <point x="611" y="125" type="line"/>
      <point x="563" y="700" type="line"/>
      <point x="490" y="700" type="line"/>
      <point x="199" y="125" type="line"/>
      <point x="203" y="700" type="line"/>
      <point x="129" y="700" type="line"/>
    </contour>
  </outline>
</glyph>
<glyph name="backslash" format="2">
  <advance width="404"/>
  <unicode hex="005C"/>
  <outline>
    <contour>
      <point x="394" y="-204" type="line"/>
      <point x="173" y="700" type="line"/>
      <point x="102" y="700" type="line"/>
      <point x="322" y="-204" type="line"/>
    </contour>
  </outline>
</glyph>
<glyph name="a" format="2">
  <advance width="506"/>
  <unicode hex="0061"/>
  <note>
Version created Mon Aug  6 16:22:34 2018
</note>
  <anchor x="288" y="501" name="top"/>
  <anchor x="397" y="0" name="bottom"/>
  <outline>
    <contour>
      <point x="187" y="-7" type="curve" smooth="yes"/>
      <point x="241" y="-7"/>
      <point x="290" y="9"/>
      <point x="335" y="41" type="curve"/>
      <point x="326" y="0" type="line"/>
      <point x="397" y="0" type="line"/>
      <point x="464" y="317" type="line" smooth="yes"/>
      <point x="489" y="437"/>
      <point x="422" y="510"/>
      <point x="286" y="510" type="curve" smooth="yes"/>
      <point x="232" y="510"/>
      <point x="173" y="497"/>
      <point x="104" y="468" type="curve"/>
      <point x="124" y="409" type="line"/>
      <point x="186" y="436"/>
      <point x="231" y="448"/>
      <point x="274" y="448" type="curve" smooth="yes"/>
      <point x="372" y="448"/>
      <point x="412" y="403"/>
      <point x="393" y="312" type="curve" smooth="yes"/>
      <point x="380" y="253" type="line"/>
      <point x="336" y="280"/>
      <point x="278" y="296"/>
      <point x="220" y="296" type="curve" smooth="yes"/>
      <point x="96" y="296"/>
      <point x="16" y="231"/>
      <point x="16" y="133" type="curve" smooth="yes"/>
      <point x="16" y="48"/>
      <point x="84" y="-7"/>
    </contour>
    <contour>
      <point x="206" y="50" type="curve" smooth="yes"/>
      <point x="130" y="50"/>
      <point x="85" y="84"/>
      <point x="85" y="140" type="curve" smooth="yes"/>
      <point x="85" y="199"/>
      <point x="141" y="242"/>
      <point x="219" y="242" type="curve" smooth="yes"/>
      <point x="280" y="242"/>
      <point x="329" y="227"/>
      <point x="368" y="195" type="curve"/>
      <point x="348" y="101" type="line"/>
      <point x="305" y="66"/>
      <point x="258" y="50"/>
    </contour>
  </outline>
</glyph>
<glyph name="c" format="2">
  <advance width="501"/>
  <unicode hex="0063"/>
  <anchor x="320" y="501" name="top"/>
  <anchor x="256" y="0" name="bottom"/>
  <outline>
    <contour>
      <point x="260" y="-9" type="curve" smooth="yes"/>
      <point x="325" y="-9"/>
      <point x="388" y="13"/>
      <point x="446" y="58" type="curve"/>
      <point x="411" y="110" type="line"/>
      <point x="364" y="75"/>
      <point x="317" y="56"/>
      <point x="269" y="56" type="curve" smooth="yes"/>
      <point x="178" y="56"/>
      <point x="108" y="129"/>
      <point x="108" y="222" type="curve" smooth="yes"/>
      <point x="108" y="341"/>
      <point x="201" y="442"/>
      <point x="309" y="442" type="curve" smooth="yes"/>
      <point x="366" y="442"/>
      <point x="416" y="415"/>
      <point x="452" y="365" type="curve"/>
      <point x="505" y="414" type="line"/>
      <point x="464" y="471"/>
      <point x="388" y="509"/>
      <point x="314" y="509" type="curve" smooth="yes"/>
      <point x="163" y="509"/>
      <point x="36" y="377"/>
      <point x="36" y="219" type="curve" smooth="yes"/>
      <point x="36" y="87"/>
      <point x="131" y="-9"/>
    </contour>
  </outline>
</glyph>
<glyph name="d" format="2">
  <advance width="579"/>
  <unicode hex="0064"/>
  <outline>
    <contour>
      <point x="259" y="-8" type="curve" smooth="yes"/>
      <point x="309" y="-8"/>
      <point x="356" y="7"/>
      <point x="397" y="35" type="curve"/>
      <point x="390" y="0" type="line"/>
      <point x="462" y="0" type="line"/>
      <point x="614" y="717" type="line"/>
      <point x="539" y="700" type="line"/>
      <point x="483" y="436" type="line"/>
      <point x="442" y="482"/>
      <point x="382" y="508"/>
      <point x="314" y="508" type="curve" smooth="yes"/>
      <point x="161" y="508"/>
      <point x="38" y="379"/>
      <point x="38" y="222" type="curve" smooth="yes"/>
      <point x="38" y="90"/>
      <point x="132" y="-8"/>
    </contour>
    <contour>
      <point x="275" y="56" type="curve" smooth="yes"/>
      <point x="178" y="56"/>
      <point x="109" y="128"/>
      <point x="109" y="228" type="curve" smooth="yes"/>
      <point x="109" y="347"/>
      <point x="201" y="443"/>
      <point x="316" y="443" type="curve" smooth="yes"/>
      <point x="381" y="443"/>
      <point x="440" y="411"/>
      <point x="467" y="363" type="curve"/>
      <point x="413" y="111" type="line"/>
      <point x="376" y="76"/>
      <point x="326" y="56"/>
    </contour>
  </outline>
</glyph>
<glyph name="f" format="2">
  <advance width="366"/>
  <unicode hex="0066"/>
  <outline>
    <contour>
      <point x="78" y="0" type="line"/>
      <point x="150" y="0" type="line"/>
      <point x="243" y="438" type="line"/>
      <point x="388" y="438" type="line"/>
      <point x="402" y="501" type="line"/>
      <point x="257" y="501" type="line"/>
      <point x="278" y="600" type="line" smooth="yes"/>
      <point x="290" y="658"/>
      <point x="318" y="682"/>
      <point x="371" y="682" type="curve" smooth="yes"/>
      <point x="398" y="682"/>
      <point x="416" y="678"/>
      <point x="438" y="669" type="curve"/>
      <point x="451" y="735" type="line"/>
      <point x="429" y="744"/>
      <point x="403" y="748"/>
      <point x="375" y="748" type="curve" smooth="yes"/>
      <point x="286" y="748"/>
      <point x="227" y="698"/>
      <point x="207" y="606" type="curve" smooth="yes"/>
      <point x="185" y="501" type="line"/>
      <point x="69" y="501" type="line"/>
      <point x="56" y="438" type="line"/>
      <point x="171" y="438" type="line"/>
    </contour>
  </outline>
</glyph>
<glyph name="h" format="2">
  <advance width="539"/>
  <unicode hex="0068"/>
  <anchor x="193" y="700" name="top"/>
  <outline>
    <contour>
      <point x="10" y="0" type="line"/>
      <point x="82" y="0" type="line"/>
      <point x="162" y="376" type="line"/>
      <point x="200" y="421"/>
      <point x="250" y="446"/>
      <point x="305" y="446" type="curve" smooth="yes"/>
      <point x="392" y="446"/>
      <point x="436" y="385"/>
      <point x="416" y="293" type="curve" smooth="yes"/>
      <point x="354" y="0" type="line"/>
      <point x="426" y="0" type="line"/>
      <point x="490" y="302" type="line" smooth="yes"/>
      <point x="515" y="422"/>
      <point x="447" y="510"/>
      <point x="329" y="510" type="curve" smooth="yes"/>
      <point x="272" y="510"/>
      <point x="221" y="490"/>
      <point x="178" y="451" type="curve"/>
      <point x="234" y="717" type="line"/>
      <point x="159" y="700" type="line"/>
    </contour>
  </outline>
</glyph>
<glyph name="j" format="2">
  <advance width="198"/>
  <unicode hex="006A"/>
  <outline>
    <contour>
      <point x="177" y="597" type="curve" smooth="yes"/>
      <point x="206" y="597"/>
      <point x="232" y="623"/>
      <point x="232" y="653" type="curve" smooth="yes"/>
      <point x="232" y="678"/>
      <point x="213" y="697"/>
      <point x="188" y="697" type="curve" smooth="yes"/>
      <point x="159" y="697"/>
      <point x="133" y="671"/>
      <point x="133" y="642" type="curve" smooth="yes"/>
      <point x="133" y="617"/>
      <point x="152" y="597"/>
    </contour>
    <contour>
      <point x="-80" y="-207" type="curve" smooth="yes"/>
      <point x="-5" y="-207"/>
      <point x="47" y="-164"/>
      <point x="63" y="-87" type="curve" smooth="yes"/>
      <point x="188" y="501" type="line"/>
      <point x="116" y="501" type="line"/>
      <point x="-7" y="-78" type="line" smooth="yes"/>
      <point x="-17" y="-124"/>
      <point x="-37" y="-143"/>
      <point x="-77" y="-143" type="curve" smooth="yes"/>
      <point x="-94" y="-143"/>
      <point x="-108" y="-141"/>
      <point x="-119" y="-137" type="curve"/>
      <point x="-132" y="-199" type="line"/>
      <point x="-117" y="-204"/>
      <point x="-96" y="-207"/>
    </contour>
  </outline>
</glyph>
<glyph name="n" format="2">
  <advance width="539"/>
  <unicode hex="006E"/>
  <anchor x="322" y="501" name="top"/>
  <anchor x="218" y="0" name="bottom"/>
  <outline>
    <contour>
      <point x="10" y="0" type="line"/>
      <point x="82" y="0" type="line"/>
      <point x="162" y="376" type="line"/>
      <point x="200" y="421"/>
      <point x="250" y="446"/>
      <point x="305" y="446" type="curve" smooth="yes"/>
      <point x="392" y="446"/>
      <point x="436" y="385"/>
      <point x="416" y="293" type="curve" smooth="yes"/>
      <point x="354" y="0" type="line"/>
      <point x="426" y="0" type="line"/>
      <point x="490" y="302" type="line" smooth="yes"/>
      <point x="515" y="422"/>
      <point x="447" y="510"/>
      <point x="329" y="510" type="curve" smooth="yes"/>
      <point x="272" y="510"/>
      <point x="221" y="490"/>
      <point x="177" y="451" type="curve"/>
      <point x="188" y="501" type="line"/>
      <point x="116" y="501" type="line"/>
    </contour>
  </outline>
</glyph>
<glyph name="r" format="2">
  <advance width="338"/>
  <unicode hex="0072"/>
  <anchor x="232" y="501" name="top"/>
  <anchor x="44" y="0" name="bottom"/>
  <outline>
    <contour>
      <point x="8" y="0" type="line"/>
      <point x="80" y="0" type="line"/>
      <point x="154" y="350" type="line"/>
      <point x="192" y="413"/>
      <point x="242" y="446"/>
      <point x="299" y="446" type="curve" smooth="yes"/>
      <point x="319" y="446"/>
      <point x="342" y="442"/>
      <point x="356" y="435" type="curve"/>
      <point x="370" y="503" type="line"/>
      <point x="358" y="508"/>
      <point x="336" y="512"/>
      <point x="317" y="512" type="curve" smooth="yes"/>
      <point x="261" y="512"/>
      <point x="210" y="485"/>
      <point x="173" y="438" type="curve"/>
      <point x="186" y="501" type="line"/>
      <point x="115" y="501" type="line"/>
    </contour>
  </outline>
</glyph>
<glyph name="s" format="2">
  <advance width="438"/>
  <unicode hex="0073"/>
  <note>
Version created Fri Aug  3 17:49:29 2018
</note>
  <anchor x="233" y="501" name="top"/>
  <anchor x="195" y="0" name="bottom"/>
  <outline>
    <contour>
      <point x="199" y="-10" type="curve" smooth="yes"/>
      <point x="313" y="-10"/>
      <point x="399" y="58"/>
      <point x="399" y="149" type="curve" smooth="yes"/>
      <point x="399" y="215"/>
      <point x="359" y="255"/>
      <point x="271" y="275" type="curve" smooth="yes"/>
      <point x="189" y="294" type="line" smooth="yes"/>
      <point x="131" y="307"/>
      <point x="109" y="327"/>
      <point x="109" y="364" type="curve" smooth="yes"/>
      <point x="109" y="415"/>
      <point x="154" y="450"/>
      <point x="222" y="450" type="curve" smooth="yes"/>
      <point x="276" y="450"/>
      <point x="334" y="426"/>
      <point x="383" y="382" type="curve"/>
      <point x="427" y="430" type="line"/>
      <point x="368" y="483"/>
      <point x="300" y="509"/>
      <point x="226" y="509" type="curve" smooth="yes"/>
      <point x="116" y="509"/>
      <point x="43" y="449"/>
      <point x="43" y="358" type="curve" smooth="yes"/>
      <point x="43" y="291"/>
      <point x="82" y="251"/>
      <point x="167" y="232" type="curve" smooth="yes"/>
      <point x="249" y="213" type="line" smooth="yes"/>
      <point x="306" y="200"/>
      <point x="330" y="179"/>
      <point x="330" y="142" type="curve" smooth="yes"/>
      <point x="330" y="89"/>
      <point x="275" y="50"/>
      <point x="201" y="50" type="curve" smooth="yes"/>
      <point x="138" y="50"/>
      <point x="80" y="77"/>
      <point x="35" y="128" type="curve"/>
      <point x="-13" y="83" type="line"/>
      <point x="34" y="26"/>
      <point x="117" y="-10"/>
    </contour>
  </outline>
</glyph>
<glyph name="x" format="2">
  <advance width="480"/>
  <unicode hex="0078"/>
  <outline>
    <contour>
      <point x="-51" y="0" type="line"/>
      <point x="38" y="0" type="line"/>
      <point x="233" y="204" type="line"/>
      <point x="340" y="0" type="line"/>
      <point x="420" y="0" type="line"/>
      <point x="282" y="256" type="line"/>
      <point x="519" y="501" type="line"/>
      <point x="431" y="501" type="line"/>
      <point x="251" y="312" type="line"/>
      <point x="153" y="501" type="line"/>
      <point x="71" y="501" type="line"/>
      <point x="200" y="261" type="line"/>
    </contour>
  </outline>
</glyph>
<glyph name="y" format="2">
  <advance width="501"/>
  <unicode hex="0079"/>
  <anchor x="292" y="501" name="top"/>
  <outline>
    <contour>
      <point x="-6" y="-214" type="curve" smooth="yes"/>
      <point x="68" y="-214"/>
      <point x="122" y="-177"/>
      <point x="178" y="-88" type="curve" smooth="yes"/>
      <point x="549" y="501" type="line"/>
      <point x="468" y="501" type="line"/>
      <point x="210" y="86" type="line"/>
      <point x="135" y="501" type="line"/>
      <point x="58" y="501" type="line"/>
      <point x="154" y="1" type="line"/>
      <point x="106" y="-73" type="line" smooth="yes"/>
      <point x="74" y="-123"/>
      <point x="39" y="-146"/>
      <point x="-4" y="-146" type="curve" smooth="yes"/>
      <point x="-20" y="-146"/>
      <point x="-36" y="-144"/>
      <point x="-47" y="-140" type="curve"/>
      <point x="-61" y="-206" type="line"/>
      <point x="-44" y="-211"/>
      <point x="-25" y="-214"/>
    </contour>
  </outline>
</glyph>
<glyph name="z" format="2">
  <advance width="453"/>
  <unicode hex="007A"/>
  <anchor x="267" y="501" name="top"/>
  <outline>
    <contour>
      <point x="-23" y="0" type="line"/>
      <point x="364" y="0" type="line"/>
      <point x="378" y="66" type="line"/>
      <point x="86" y="66" type="line"/>
      <point x="456" y="444" type="line"/>
      <point x="468" y="501" type="line"/>
      <point x="86" y="501" type="line"/>
      <point x="72" y="435" type="line"/>
      <point x="357" y="435" type="line"/>
      <point x="-11" y="58" type="line"/>
    </contour>
  </outline>
</glyph>
<glyph name="braceleft" format="2">
  <advance width="373"/>
  <unicode hex="007B"/>
  <outline>
    <contour>
      <point x="168" y="-212" type="curve" smooth="yes"/>
      <point x="193" y="-212"/>
      <point x="209" y="-210"/>
      <point x="238" y="-203" type="curve"/>
      <point x="235" y="-145" type="line"/>
      <point x="216" y="-150"/>
      <point x="202" y="-152"/>
      <point x="178" y="-152" type="curve" smooth="yes"/>
      <point x="112" y="-152"/>
      <point x="90" y="-99"/>
      <point x="136" y="-28" type="curve" smooth="yes"/>
      <point x="209" y="85" type="line" smooth="yes"/>
      <point x="254" y="155"/>
      <point x="231" y="221"/>
      <point x="164" y="247" type="curve"/>
      <point x="240" y="263"/>
      <point x="290" y="327"/>
      <point x="276" y="403" type="curve" smooth="yes"/>
      <point x="251" y="527" type="line" smooth="yes"/>
      <point x="237" y="604"/>
      <point x="272" y="650"/>
      <point x="336" y="650" type="curve" smooth="yes"/>
      <point x="358" y="650"/>
      <point x="380" y="645"/>
      <point x="401" y="635" type="curve"/>
      <point x="428" y="690" type="line"/>
      <point x="399" y="704"/>
      <point x="371" y="710"/>
      <point x="340" y="710" type="curve" smooth="yes"/>
      <point x="229" y="710"/>
      <point x="164" y="626"/>
      <point x="187" y="515" type="curve" smooth="yes"/>
      <point x="209" y="412" type="line" smooth="yes"/>
      <point x="225" y="338"/>
      <point x="183" y="281"/>
      <point x="109" y="281" type="curve" smooth="yes"/>
      <point x="31" y="281" type="line"/>
      <point x="18" y="220" type="line"/>
      <point x="96" y="220" type="line" smooth="yes"/>
      <point x="167" y="220"/>
      <point x="187" y="157"/>
      <point x="140" y="87" type="curve" smooth="yes"/>
      <point x="77" y="-6" type="line" smooth="yes"/>
      <point x="5" y="-115"/>
      <point x="44" y="-212"/>
    </contour>
  </outline>
</glyph>
<glyph name="bar" format="2">
  <advance width="268"/>
  <unicode hex="007C"/>
  <outline>
    <contour>
      <point x="3" y="-205" type="line"/>
      <point x="70" y="-205" type="line"/>
      <point x="263" y="700" type="line"/>
      <point x="196" y="700" type="line"/>
    </contour>
  </outline>
</glyph>
<glyph name="braceright" format="2">
  <advance width="373"/>
  <unicode hex="007D"/>
  <outline>
    <contour>
      <point x="203" y="699" type="curve" smooth="yes"/>
      <point x="178" y="699"/>
      <point x="162" y="697"/>
      <point x="133" y="690" type="curve"/>
      <point x="136" y="632" type="line"/>
      <point x="155" y="637"/>
      <point x="169" y="639"/>
      <point x="193" y="639" type="curve" smooth="yes"/>
      <point x="259" y="639"/>
      <point x="281" y="586"/>
      <point x="235" y="515" type="curve" smooth="yes"/>
      <point x="162" y="402" type="line" smooth="yes"/>
      <point x="117" y="332"/>
      <point x="140" y="266"/>
      <point x="207" y="240" type="curve"/>
      <point x="131" y="224"/>
      <point x="81" y="160"/>
      <point x="95" y="84" type="curve" smooth="yes"/>
      <point x="120" y="-40" type="line" smooth="yes"/>
      <point x="134" y="-117"/>
      <point x="99" y="-163"/>
      <point x="35" y="-163" type="curve" smooth="yes"/>
      <point x="13" y="-163"/>
      <point x="-9" y="-158"/>
      <point x="-30" y="-148" type="curve"/>
      <point x="-57" y="-203" type="line"/>
      <point x="-28" y="-217"/>
      <point x="0" y="-223"/>
      <point x="31" y="-223" type="curve" smooth="yes"/>
      <point x="142" y="-223"/>
      <point x="207" y="-139"/>
      <point x="184" y="-28" type="curve" smooth="yes"/>
      <point x="162" y="75" type="line" smooth="yes"/>
      <point x="146" y="149"/>
      <point x="188" y="206"/>
      <point x="262" y="206" type="curve" smooth="yes"/>
      <point x="340" y="206" type="line"/>
      <point x="353" y="267" type="line"/>
      <point x="275" y="267" type="line" smooth="yes"/>
      <point x="204" y="267"/>
      <point x="184" y="330"/>
      <point x="231" y="400" type="curve" smooth="yes"/>
      <point x="294" y="493" type="line" smooth="yes"/>
      <point x="366" y="602"/>
      <point x="327" y="699"/>
    </contour>
  </outline>
</glyph>
<glyph name="exclamdown" format="2">
  <advance width="194"/>
  <unicode hex="00A1"/>
  <outline>
    <contour>
      <point x="136" y="303" type="line"/>
      <point x="78" y="303" type="line"/>
      <point x="-40" y="-208" type="line"/>
      <point x="36" y="-208" type="line"/>
    </contour>
    <contour>
      <point x="145" y="503" type="curve" smooth="yes"/>
      <point x="116" y="503"/>
      <point x="89" y="476"/>
      <point x="89" y="447" type="curve" smooth="yes"/>
      <point x="89" y="421"/>
      <point x="108" y="401"/>
      <point x="133" y="401" type="curve" smooth="yes"/>
      <point x="163" y="401"/>
      <point x="190" y="428"/>
      <point x="190" y="458" type="curve" smooth="yes"/>
      <point x="190" y="483"/>
      <point x="171" y="503"/>
    </contour>
  </outline>
</glyph>
<glyph name="cent" format="2">
  <advance width="505"/>
  <unicode hex="00A2"/>
  <outline>
    <contour>
      <point x="184" y="-118" type="line"/>
      <point x="226" y="-118" type="line"/>
      <point x="249" y="-9" type="line"/>
      <point x="323" y="-9"/>
      <point x="383" y="9"/>
      <point x="446" y="58" type="curve"/>
      <point x="411" y="110" type="line"/>
      <point x="364" y="75"/>
      <point x="318" y="56"/>
      <point x="263" y="56" type="curve"/>
      <point x="344" y="438" type="line"/>
      <point x="386" y="430"/>
      <point x="424" y="405"/>
      <point x="452" y="365" type="curve"/>
      <point x="505" y="414" type="line"/>
      <point x="472" y="460"/>
      <point x="417" y="493"/>
      <point x="358" y="505" type="curve"/>
      <point x="380" y="609" type="line"/>
      <point x="339" y="609" type="line"/>
      <point x="318" y="509" type="line"/>
      <point x="161" y="509"/>
      <point x="36" y="377"/>
      <point x="36" y="219" type="curve" smooth="yes"/>
      <point x="36" y="105"/>
      <point x="106" y="18"/>
      <point x="208" y="-4" type="curve"/>
    </contour>
    <contour>
      <point x="223" y="63" type="line"/>
      <point x="155" y="83"/>
      <point x="108" y="146"/>
      <point x="108" y="222" type="curve" smooth="yes"/>
      <point x="108" y="339"/>
      <point x="198" y="438"/>
      <point x="303" y="442" type="curve"/>
    </contour>
  </outline>
</glyph>
<glyph name="sterling" format="2">
  <advance width="605"/>
  <unicode hex="00A3"/>
  <outline>
    <contour>
      <point x="409" y="-30" type="curve" smooth="yes"/>
      <point x="467" y="-30"/>
      <point x="513" y="-6"/>
      <point x="554" y="44" type="curve"/>
      <point x="508" y="83" type="line"/>
      <point x="481" y="50"/>
      <point x="452" y="34"/>
      <point x="415" y="34" type="curve" smooth="yes"/>
      <point x="401" y="34"/>
      <point x="386" y="37"/>
      <point x="369" y="41" type="curve" smooth="yes"/>
      <point x="179" y="91" type="line"/>
      <point x="207" y="114"/>
      <point x="224" y="153"/>
      <point x="226" y="203" type="curve" smooth="yes"/>
      <point x="229" y="312" type="line"/>
      <point x="424" y="312" type="line"/>
      <point x="436" y="369" type="line"/>
      <point x="230" y="369" type="line"/>
      <point x="233" y="464" type="line" smooth="yes"/>
      <point x="237" y="580"/>
      <point x="294" y="649"/>
      <point x="387" y="649" type="curve" smooth="yes"/>
      <point x="480" y="649"/>
      <point x="532" y="599"/>
      <point x="538" y="504" type="curve"/>
      <point x="603" y="518" type="line"/>
      <point x="593" y="643"/>
      <point x="517" y="711"/>
      <point x="390" y="711" type="curve" smooth="yes"/>
      <point x="258" y="711"/>
      <point x="168" y="613"/>
      <point x="163" y="462" type="curve" smooth="yes"/>
      <point x="160" y="369" type="line"/>
      <point x="67" y="369" type="line"/>
      <point x="54" y="312" type="line"/>
      <point x="159" y="312" type="line"/>
      <point x="155" y="189" type="line" smooth="yes"/>
      <point x="154" y="146"/>
      <point x="138" y="116"/>
      <point x="111" y="102" type="curve"/>
      <point x="52" y="102"/>
      <point x="4" y="77"/>
      <point x="-40" y="23" type="curve"/>
      <point x="6" y="-18" type="line"/>
      <point x="34" y="21"/>
      <point x="65" y="38"/>
      <point x="106" y="38" type="curve" smooth="yes"/>
      <point x="121" y="38"/>
      <point x="137" y="36"/>
      <point x="155" y="31" type="curve" smooth="yes"/>
      <point x="338" y="-19" type="line" smooth="yes"/>
      <point x="364" y="-26"/>
      <point x="387" y="-30"/>
    </contour>
  </outline>
</glyph>
<glyph name="yen" format="2">
  <advance width="628"/>
  <unicode hex="00A5"/>
  <outline>
    <contour>
      <point x="221" y="0" type="line"/>
      <point x="297" y="0" type="line"/>
      <point x="326" y="134" type="line"/>
      <point x="509" y="134" type="line"/>
      <point x="519" y="188" type="line"/>
      <point x="337" y="188" type="line"/>
      <point x="353" y="263" type="line"/>
      <point x="536" y="263" type="line"/>
      <point x="547" y="317" type="line"/>
      <point x="387" y="317" type="line"/>
      <point x="719" y="700" type="line"/>
      <point x="628" y="700" type="line"/>
      <point x="331" y="354" type="line"/>
      <point x="178" y="700" type="line"/>
      <point x="98" y="700" type="line"/>
      <point x="267" y="317" type="line"/>
      <point x="104" y="317" type="line"/>
      <point x="94" y="263" type="line"/>
      <point x="276" y="263" type="line"/>
      <point x="260" y="188" type="line"/>
      <point x="77" y="188" type="line"/>
      <point x="66" y="134" type="line"/>
      <point x="249" y="134" type="line"/>
    </contour>
  </outline>
</glyph>
<glyph name="uni00A6" format="2">
  <advance width="274"/>
  <unicode hex="00A6"/>
  <guideline x="137" y="247" angle="102.0" identifier="ClaBlADU7P"/>
  <guideline x="137" y="247" angle="0.0" identifier="gnkGUokBKe"/>
  <outline>
    <contour>
      <point x="179" y="288" type="line"/>
      <point x="267" y="700" type="line"/>
      <point x="199" y="700" type="line"/>
      <point x="111" y="288" type="line"/>
    </contour>
    <contour>
      <point x="7" y="-204" type="line"/>
      <point x="75" y="-204" type="line"/>
      <point x="162" y="208" type="line"/>
      <point x="94" y="208" type="line"/>
    </contour>
  </outline>
</glyph>
<glyph name="dieresis" format="2">
  <advance width="600"/>
  <unicode hex="00A8"/>
  <guideline x="385" y="666" angle="90.0" identifier="G6pga27Q2X"/>
  <guideline x="385" y="666" angle="0.0" identifier="HxZdKMpyy6"/>
  <outline>
    <contour>
      <point x="295" y="602" type="curve" smooth="yes"/>
      <point x="323" y="602"/>
      <point x="349" y="628"/>
      <point x="349" y="656" type="curve" smooth="yes"/>
      <point x="349" y="680"/>
      <point x="330" y="700"/>
      <point x="306" y="700" type="curve" smooth="yes"/>
      <point x="277" y="700"/>
      <point x="252" y="674"/>
      <point x="252" y="646" type="curve" smooth="yes"/>
      <point x="252" y="621"/>
      <point x="270" y="602"/>
    </contour>
    <contour>
      <point x="468" y="602" type="curve" smooth="yes"/>
      <point x="497" y="602"/>
      <point x="522" y="628"/>
      <point x="522" y="656" type="curve" smooth="yes"/>
      <point x="522" y="680"/>
      <point x="504" y="700"/>
      <point x="480" y="700" type="curve" smooth="yes"/>
      <point x="451" y="700"/>
      <point x="425" y="674"/>
      <point x="425" y="646" type="curve" smooth="yes"/>
      <point x="425" y="621"/>
      <point x="444" y="602"/>
    </contour>
  </outline>
</glyph>
<glyph name="uni00AC" format="2">
  <advance width="547"/>
  <unicode hex="00AC"/>
  <outline>
    <contour>
      <point x="379" y="0" type="line"/>
      <point x="445" y="0" type="line"/>
      <point x="512" y="314" type="line"/>
      <point x="63" y="314" type="line"/>
      <point x="49" y="248" type="line"/>
      <point x="432" y="248" type="line"/>
    </contour>
  </outline>
</glyph>
<glyph name="macron" format="2">
  <advance width="600"/>
  <unicode hex="00AF"/>
  <guideline x="384" y="657" angle="90.0" identifier="TF0TaKjdV8"/>
  <outline>
    <contour>
      <point x="233" y="621" type="line"/>
      <point x="511" y="621" type="line"/>
      <point x="523" y="674" type="line"/>
      <point x="245" y="674" type="line"/>
    </contour>
  </outline>
</glyph>
<glyph name="degree" format="2">
  <advance width="381"/>
  <unicode hex="00B0"/>
  <outline>
    <contour>
      <point x="243" y="423" type="curve" smooth="yes"/>
      <point x="327" y="423"/>
      <point x="399" y="495"/>
      <point x="399" y="579" type="curve" smooth="yes"/>
      <point x="399" y="653"/>
      <point x="345" y="707"/>
      <point x="272" y="707" type="curve" smooth="yes"/>
      <point x="187" y="707"/>
      <point x="116" y="635"/>
      <point x="116" y="551" type="curve" smooth="yes"/>
      <point x="116" y="477"/>
      <point x="169" y="423"/>
    </contour>
    <contour>
      <point x="246" y="471" type="curve" smooth="yes"/>
      <point x="200" y="471"/>
      <point x="167" y="508"/>
      <point x="167" y="556" type="curve" smooth="yes"/>
      <point x="167" y="612"/>
      <point x="213" y="659"/>
      <point x="269" y="659" type="curve" smooth="yes"/>
      <point x="314" y="659"/>
      <point x="348" y="623"/>
      <point x="348" y="574" type="curve" smooth="yes"/>
      <point x="348" y="518"/>
      <point x="301" y="471"/>
    </contour>
  </outline>
</glyph>
<glyph name="threesuperior" format="2">
  <advance width="306"/>
  <unicode hex="00B3"/>
  <outline>
    <contour>
      <point x="184" y="345" type="curve" smooth="yes"/>
      <point x="260" y="345"/>
      <point x="320" y="393"/>
      <point x="320" y="453" type="curve" smooth="yes"/>
      <point x="320" y="485"/>
      <point x="301" y="510"/>
      <point x="269" y="523" type="curve"/>
      <point x="313" y="539"/>
      <point x="343" y="573"/>
      <point x="343" y="614" type="curve" smooth="yes"/>
      <point x="343" y="667"/>
      <point x="296" y="704"/>
      <point x="232" y="704" type="curve" smooth="yes"/>
      <point x="188" y="704"/>
      <point x="144" y="688"/>
      <point x="107" y="659" type="curve"/>
      <point x="133" y="623" type="line"/>
      <point x="164" y="647"/>
      <point x="193" y="658"/>
      <point x="225" y="658" type="curve" smooth="yes"/>
      <point x="264" y="658"/>
      <point x="291" y="637"/>
      <point x="291" y="607" type="curve" smooth="yes"/>
      <point x="291" y="572"/>
      <point x="255" y="546"/>
      <point x="209" y="546" type="curve" smooth="yes"/>
      <point x="182" y="546" type="line"/>
      <point x="173" y="504" type="line"/>
      <point x="204" y="504" type="line" smooth="yes"/>
      <point x="243" y="504"/>
      <point x="269" y="483"/>
      <point x="269" y="451" type="curve" smooth="yes"/>
      <point x="269" y="416"/>
      <point x="234" y="390"/>
      <point x="187" y="390" type="curve" smooth="yes"/>
      <point x="144" y="390"/>
      <point x="113" y="405"/>
      <point x="90" y="437" type="curve"/>
      <point x="51" y="406" type="line"/>
      <point x="80" y="366"/>
      <point x="125" y="345"/>
    </contour>
  </outline>
</glyph>
<glyph name="acute" format="2">
  <advance width="600"/>
  <unicode hex="00B4"/>
  <anchor x="355" y="501" name="_top"/>
  <outline>
    <contour>
      <point x="324" y="600" type="line"/>
      <point x="391" y="600" type="line"/>
      <point x="536" y="716" type="line"/>
      <point x="441" y="716" type="line"/>
    </contour>
  </outline>
</glyph>
<glyph name="periodcentered" format="2">
  <advance width="250"/>
  <unicode hex="00B7"/>
  <outline>
    <contour>
      <point x="126" y="231" type="curve" smooth="yes"/>
      <point x="155" y="231"/>
      <point x="182" y="258"/>
      <point x="182" y="287" type="curve" smooth="yes"/>
      <point x="182" y="313"/>
      <point x="163" y="333"/>
      <point x="138" y="333" type="curve" smooth="yes"/>
      <point x="108" y="333"/>
      <point x="81" y="306"/>
      <point x="81" y="276" type="curve" smooth="yes"/>
      <point x="81" y="251"/>
      <point x="100" y="231"/>
    </contour>
  </outline>
</glyph>
<glyph name="cedilla" format="2">
  <advance width="600"/>
  <unicode hex="00B8"/>
  <guideline x="248" y="0" angle="0.0" color="0.999,0.001,0.001,0.999" identifier="iVRxW6xjfL"/>
  <outline>
    <contour>
      <point x="201" y="-228" type="curve" smooth="yes"/>
      <point x="269" y="-228"/>
      <point x="320" y="-186"/>
      <point x="320" y="-129" type="curve" smooth="yes"/>
      <point x="320" y="-88"/>
      <point x="291" y="-61"/>
      <point x="242" y="-56" type="curve"/>
      <point x="270" y="0" type="line"/>
      <point x="227" y="0" type="line"/>
      <point x="182" y="-91" type="line"/>
      <point x="211" y="-91" type="line" smooth="yes"/>
      <point x="249" y="-91"/>
      <point x="272" y="-107"/>
      <point x="272" y="-134" type="curve" smooth="yes"/>
      <point x="272" y="-165"/>
      <point x="243" y="-186"/>
      <point x="202" y="-186" type="curve" smooth="yes"/>
      <point x="171" y="-186"/>
      <point x="146" y="-175"/>
      <point x="124" y="-151" type="curve"/>
      <point x="91" y="-181" type="line"/>
      <point x="115" y="-211"/>
      <point x="155" y="-228"/>
    </contour>
  </outline>
</glyph>
<glyph name="onesuperior" format="2">
  <advance width="162"/>
  <unicode hex="00B9"/>
  <outline>
    <contour>
      <point x="103" y="350" type="line"/>
      <point x="153" y="350" type="line"/>
      <point x="228" y="700" type="line"/>
      <point x="196" y="700" type="line"/>
      <point x="108" y="665" type="line"/>
      <point x="97" y="620" type="line"/>
      <point x="166" y="646" type="line"/>
    </contour>
  </outline>
</glyph>
<glyph name="AE" format="2">
  <advance width="934"/>
  <unicode hex="00C6"/>
  <outline>
    <contour>
      <point x="-49" y="0" type="line"/>
      <point x="32" y="0" type="line"/>
      <point x="166" y="220" type="line"/>
      <point x="489" y="220" type="line"/>
      <point x="529" y="0" type="line"/>
      <point x="847" y="0" type="line"/>
      <point x="861" y="68" type="line"/>
      <point x="592" y="68" type="line"/>
      <point x="546" y="320" type="line"/>
      <point x="777" y="320" type="line"/>
      <point x="791" y="387" type="line"/>
      <point x="534" y="387" type="line"/>
      <point x="490" y="632" type="line"/>
      <point x="981" y="632" type="line"/>
      <point x="996" y="700" type="line"/>
      <point x="382" y="700" type="line"/>
    </contour>
    <contour>
      <point x="207" y="286" type="line"/>
      <point x="416" y="629" type="line"/>
      <point x="478" y="286" type="line"/>
    </contour>
  </outline>
</glyph>
<glyph name="Ccedilla" format="2">
  <advance width="709"/>
  <unicode hex="00C7"/>
  <outline>
    <contour>
      <point x="341" y="-228" type="curve" smooth="yes"/>
      <point x="409" y="-228"/>
      <point x="460" y="-186"/>
      <point x="460" y="-129" type="curve" smooth="yes"/>
      <point x="460" y="-88"/>
      <point x="431" y="-61"/>
      <point x="382" y="-56" type="curve"/>
      <point x="405" y="-11" type="line"/>
      <point x="499" y="-9"/>
      <point x="593" y="29"/>
      <point x="667" y="95" type="curve"/>
      <point x="627" y="148" type="line"/>
      <point x="567" y="92"/>
      <point x="484" y="59"/>
      <point x="401" y="59" type="curve" smooth="yes"/>
      <point x="251" y="59"/>
      <point x="141" y="171"/>
      <point x="141" y="322" type="curve" smooth="yes"/>
      <point x="141" y="499"/>
      <point x="274" y="639"/>
      <point x="442" y="639" type="curve" smooth="yes"/>
      <point x="534" y="639"/>
      <point x="614" y="600"/>
      <point x="661" y="532" type="curve"/>
      <point x="718" y="584" type="line"/>
      <point x="657" y="665"/>
      <point x="562" y="709"/>
      <point x="446" y="709" type="curve" smooth="yes"/>
      <point x="237" y="709"/>
      <point x="64" y="533"/>
      <point x="64" y="319" type="curve" smooth="yes"/>
      <point x="64" y="142"/>
      <point x="190" y="6"/>
      <point x="362" y="-9" type="curve"/>
      <point x="322" y="-91" type="line"/>
      <point x="351" y="-91" type="line" smooth="yes"/>
      <point x="389" y="-91"/>
      <point x="412" y="-107"/>
      <point x="412" y="-134" type="curve" smooth="yes"/>
      <point x="412" y="-165"/>
      <point x="383" y="-186"/>
      <point x="342" y="-186" type="curve" smooth="yes"/>
      <point x="311" y="-186"/>
      <point x="286" y="-175"/>
      <point x="264" y="-151" type="curve"/>
      <point x="231" y="-181" type="line"/>
      <point x="255" y="-211"/>
      <point x="295" y="-228"/>
    </contour>
  </outline>
</glyph>
<glyph name="Oslash" format="2">
  <advance width="794"/>
  <unicode hex="00D8"/>
  <outline>
    <contour>
      <point x="391" y="-11" type="curve" smooth="yes"/>
      <point x="599" y="-11"/>
      <point x="771" y="167"/>
      <point x="771" y="380" type="curve" smooth="yes"/>
      <point x="771" y="460"/>
      <point x="745" y="533"/>
      <point x="701" y="589" type="curve"/>
      <point x="814" y="700" type="line"/>
      <point x="732" y="700" type="line"/>
      <point x="661" y="631" type="line"/>
      <point x="604" y="681"/>
      <point x="528" y="711"/>
      <point x="442" y="711" type="curve" smooth="yes"/>
      <point x="234" y="711"/>
      <point x="62" y="533"/>
      <point x="62" y="320" type="curve" smooth="yes"/>
      <point x="62" y="240"/>
      <point x="88" y="168"/>
      <point x="132" y="112" type="curve"/>
      <point x="17" y="0" type="line"/>
      <point x="98" y="0" type="line"/>
      <point x="170" y="71" type="line"/>
      <point x="228" y="19"/>
      <point x="305" y="-11"/>
    </contour>
    <contour>
      <point x="186" y="166" type="line"/>
      <point x="156" y="209"/>
      <point x="138" y="264"/>
      <point x="138" y="324" type="curve" smooth="yes"/>
      <point x="138" y="497"/>
      <point x="273" y="640"/>
      <point x="437" y="640" type="curve" smooth="yes"/>
      <point x="504" y="640"/>
      <point x="563" y="617"/>
      <point x="607" y="578" type="curve"/>
    </contour>
    <contour>
      <point x="396" y="60" type="curve" smooth="yes"/>
      <point x="329" y="60"/>
      <point x="269" y="84"/>
      <point x="224" y="124" type="curve"/>
      <point x="646" y="535" type="line"/>
      <point x="677" y="492"/>
      <point x="695" y="437"/>
      <point x="695" y="376" type="curve" smooth="yes"/>
      <point x="695" y="203"/>
      <point x="560" y="60"/>
    </contour>
  </outline>
</glyph>
<glyph name="Thorn" format="2">
  <advance width="634"/>
  <unicode hex="00DE"/>
  <outline>
    <contour>
      <point x="22" y="0" type="line"/>
      <point x="97" y="0" type="line"/>
      <point x="127" y="142" type="line"/>
      <point x="364" y="142" type="line" smooth="yes"/>
      <point x="507" y="142"/>
      <point x="611" y="242"/>
      <point x="611" y="380" type="curve" smooth="yes"/>
      <point x="611" y="489"/>
      <point x="534" y="558"/>
      <point x="413" y="558" type="curve" smooth="yes"/>
      <point x="216" y="558" type="line"/>
      <point x="246" y="700" type="line"/>
      <point x="171" y="700" type="line"/>
    </contour>
    <contour>
      <point x="141" y="209" type="line"/>
      <point x="201" y="490" type="line"/>
      <point x="401" y="490" type="line" smooth="yes"/>
      <point x="485" y="490"/>
      <point x="535" y="446"/>
      <point x="535" y="375" type="curve" smooth="yes"/>
      <point x="535" y="276"/>
      <point x="465" y="209"/>
      <point x="363" y="209" type="curve" smooth="yes"/>
    </contour>
  </outline>
</glyph>
<glyph name="ccedilla" format="2">
  <advance width="501"/>
  <unicode hex="00E7"/>
  <outline>
    <contour>
      <point x="209" y="-228" type="curve" smooth="yes"/>
      <point x="277" y="-228"/>
      <point x="328" y="-186"/>
      <point x="328" y="-129" type="curve" smooth="yes"/>
      <point x="328" y="-88"/>
      <point x="299" y="-61"/>
      <point x="250" y="-56" type="curve"/>
      <point x="274" y="-9" type="line"/>
      <point x="334" y="-6"/>
      <point x="392" y="16"/>
      <point x="446" y="58" type="curve"/>
      <point x="411" y="110" type="line"/>
      <point x="364" y="75"/>
      <point x="317" y="56"/>
      <point x="269" y="56" type="curve" smooth="yes"/>
      <point x="178" y="56"/>
      <point x="108" y="129"/>
      <point x="108" y="222" type="curve" smooth="yes"/>
      <point x="108" y="341"/>
      <point x="201" y="442"/>
      <point x="309" y="442" type="curve" smooth="yes"/>
      <point x="366" y="442"/>
      <point x="416" y="415"/>
      <point x="452" y="365" type="curve"/>
      <point x="505" y="414" type="line"/>
      <point x="464" y="471"/>
      <point x="388" y="509"/>
      <point x="314" y="509" type="curve" smooth="yes"/>
      <point x="163" y="509"/>
      <point x="36" y="377"/>
      <point x="36" y="219" type="curve" smooth="yes"/>
      <point x="36" y="97"/>
      <point x="117" y="6"/>
      <point x="231" y="-7" type="curve"/>
      <point x="190" y="-91" type="line"/>
      <point x="219" y="-91" type="line" smooth="yes"/>
      <point x="257" y="-91"/>
      <point x="280" y="-107"/>
      <point x="280" y="-134" type="curve" smooth="yes"/>
      <point x="280" y="-165"/>
      <point x="251" y="-186"/>
      <point x="210" y="-186" type="curve" smooth="yes"/>
      <point x="179" y="-186"/>
      <point x="154" y="-175"/>
      <point x="132" y="-151" type="curve"/>
      <point x="99" y="-181" type="line"/>
      <point x="123" y="-211"/>
      <point x="163" y="-228"/>
    </contour>
  </outline>
</glyph>
<glyph name="Dcroat" format="2">
  <advance width="727"/>
  <unicode hex="0110"/>
  <outline>
    <contour>
      <point x="43" y="0" type="line"/>
      <point x="299" y="0" type="line" smooth="yes"/>
      <point x="524" y="0"/>
      <point x="707" y="175"/>
      <point x="707" y="391" type="curve" smooth="yes"/>
      <point x="707" y="576"/>
      <point x="580" y="700"/>
      <point x="390" y="700" type="curve" smooth="yes"/>
      <point x="192" y="700" type="line"/>
      <point x="125" y="383" type="line"/>
      <point x="39" y="383" type="line"/>
      <point x="25" y="317" type="line"/>
      <point x="110" y="317" type="line"/>
    </contour>
    <contour>
      <point x="133" y="70" type="line"/>
      <point x="185" y="317" type="line"/>
      <point x="372" y="317" type="line"/>
      <point x="385" y="383" type="line"/>
      <point x="200" y="383" type="line"/>
      <point x="252" y="630" type="line"/>
      <point x="386" y="630" type="line" smooth="yes"/>
      <point x="532" y="630"/>
      <point x="630" y="533"/>
      <point x="630" y="389" type="curve" smooth="yes"/>
      <point x="630" y="212"/>
      <point x="487" y="70"/>
      <point x="309" y="70" type="curve" smooth="yes"/>
    </contour>
  </outline>
</glyph>
<glyph name="eogonek" format="2">
  <advance width="552"/>
  <unicode hex="0119"/>
  <outline>
    <contour>
      <point x="262" y="-222" type="curve" smooth="yes"/>
      <point x="285" y="-222"/>
      <point x="307" y="-216"/>
      <point x="328" y="-206" type="curve"/>
      <point x="323" y="-166" type="line"/>
      <point x="309" y="-173"/>
      <point x="292" y="-177"/>
      <point x="277" y="-177" type="curve" smooth="yes"/>
      <point x="247" y="-177"/>
      <point x="227" y="-160"/>
      <point x="227" y="-134" type="curve" smooth="yes"/>
      <point x="227" y="-88"/>
      <point x="268" y="-47"/>
      <point x="358" y="0" type="curve"/>
      <point x="392" y="8"/>
      <point x="424" y="23"/>
      <point x="456" y="45" type="curve"/>
      <point x="418" y="96" type="line"/>
      <point x="381" y="70"/>
      <point x="332" y="55"/>
      <point x="283" y="55" type="curve" smooth="yes"/>
      <point x="186" y="55"/>
      <point x="112" y="128"/>
      <point x="110" y="228" type="curve"/>
      <point x="511" y="228" type="line"/>
      <point x="513" y="244"/>
      <point x="514" y="259"/>
      <point x="514" y="273" type="curve" smooth="yes"/>
      <point x="514" y="408"/>
      <point x="423" y="509"/>
      <point x="301" y="509" type="curve" smooth="yes"/>
      <point x="157" y="509"/>
      <point x="38" y="381"/>
      <point x="38" y="226" type="curve" smooth="yes"/>
      <point x="38" y="89"/>
      <point x="139" y="-9"/>
      <point x="280" y="-9" type="curve"/>
      <point x="210" y="-53"/>
      <point x="174" y="-99"/>
      <point x="174" y="-149" type="curve" smooth="yes"/>
      <point x="174" y="-193"/>
      <point x="209" y="-222"/>
    </contour>
    <contour>
      <point x="117" y="287" type="line"/>
      <point x="138" y="377"/>
      <point x="210" y="444"/>
      <point x="294" y="444" type="curve" smooth="yes"/>
      <point x="377" y="444"/>
      <point x="439" y="378"/>
      <point x="445" y="287" type="curve"/>
    </contour>
  </outline>
</glyph>
<glyph name="Hbar" format="2">
  <advance width="716"/>
  <unicode hex="0126"/>
  <outline>
    <contour>
      <point x="29" y="0" type="line"/>
      <point x="104" y="0" type="line"/>
      <point x="172" y="318" type="line"/>
      <point x="572" y="318" type="line"/>
      <point x="504" y="0" type="line"/>
      <point x="579" y="0" type="line"/>
      <point x="689" y="519" type="line"/>
      <point x="757" y="519" type="line"/>
      <point x="771" y="584" type="line"/>
      <point x="703" y="584" type="line"/>
      <point x="728" y="700" type="line"/>
      <point x="653" y="700" type="line"/>
      <point x="628" y="584" type="line"/>
      <point x="228" y="584" type="line"/>
      <point x="253" y="700" type="line"/>
      <point x="178" y="700" type="line"/>
      <point x="153" y="584" type="line"/>
      <point x="86" y="584" type="line"/>
      <point x="72" y="519" type="line"/>
      <point x="139" y="519" type="line"/>
    </contour>
    <contour>
      <point x="186" y="387" type="line"/>
      <point x="214" y="519" type="line"/>
      <point x="614" y="519" type="line"/>
      <point x="586" y="387" type="line"/>
    </contour>
  </outline>
</glyph>
<glyph name="hbar" format="2">
  <advance width="538"/>
  <unicode hex="0127"/>
  <outline>
    <contour>
      <point x="10" y="0" type="line"/>
      <point x="82" y="0" type="line"/>
      <point x="162" y="376" type="line"/>
      <point x="200" y="421"/>
      <point x="250" y="446"/>
      <point x="305" y="446" type="curve" smooth="yes"/>
      <point x="392" y="446"/>
      <point x="436" y="385"/>
      <point x="416" y="293" type="curve" smooth="yes"/>
      <point x="354" y="0" type="line"/>
      <point x="426" y="0" type="line"/>
      <point x="490" y="302" type="line" smooth="yes"/>
      <point x="515" y="422"/>
      <point x="447" y="510"/>
      <point x="329" y="510" type="curve" smooth="yes"/>
      <point x="272" y="510"/>
      <point x="221" y="490"/>
      <point x="178" y="451" type="curve"/>
      <point x="206" y="586" type="line"/>
      <point x="364" y="586" type="line"/>
      <point x="376" y="644" type="line"/>
      <point x="219" y="644" type="line"/>
      <point x="234" y="717" type="line"/>
      <point x="159" y="700" type="line"/>
      <point x="147" y="644" type="line"/>
      <point x="82" y="644" type="line"/>
      <point x="70" y="586" type="line"/>
      <point x="135" y="586" type="line"/>
    </contour>
  </outline>
</glyph>
<glyph name="Iogonek" format="2">
  <advance width="227"/>
  <unicode hex="012E"/>
  <outline>
    <contour>
      <point x="1" y="-222" type="curve" smooth="yes"/>
      <point x="24" y="-222"/>
      <point x="46" y="-216"/>
      <point x="67" y="-206" type="curve"/>
      <point x="62" y="-166" type="line"/>
      <point x="48" y="-173"/>
      <point x="31" y="-177"/>
      <point x="16" y="-177" type="curve" smooth="yes"/>
      <point x="-14" y="-177"/>
      <point x="-34" y="-160"/>
      <point x="-34" y="-134" type="curve" smooth="yes"/>
      <point x="-34" y="-88"/>
      <point x="7" y="-47"/>
      <point x="97" y="0" type="curve"/>
      <point x="246" y="700" type="line"/>
      <point x="171" y="700" type="line"/>
      <point x="22" y="0" type="line"/>
      <point x="35" y="0" type="line"/>
      <point x="-46" y="-47"/>
      <point x="-87" y="-96"/>
      <point x="-87" y="-149" type="curve" smooth="yes"/>
      <point x="-87" y="-193"/>
      <point x="-52" y="-222"/>
    </contour>
  </outline>
</glyph>
<glyph name="dotlessi" format="2">
  <advance width="198"/>
  <unicode hex="0131"/>
  <anchor x="152" y="501" name="top"/>
  <anchor x="82" y="0" name="bottom"/>
  <outline>
    <contour>
      <point x="10" y="0" type="line"/>
      <point x="82" y="0" type="line"/>
      <point x="188" y="501" type="line"/>
      <point x="116" y="501" type="line"/>
    </contour>
  </outline>
</glyph>
<glyph name="kgreenlandic" format="2">
  <advance width="485"/>
  <unicode hex="0138"/>
  <outline>
    <contour>
      <point x="10" y="0" type="line"/>
      <point x="82" y="0" type="line"/>
      <point x="132" y="237" type="line"/>
      <point x="339" y="0" type="line"/>
      <point x="430" y="0" type="line"/>
      <point x="207" y="254" type="line"/>
      <point x="543" y="501" type="line"/>
      <point x="445" y="501" type="line"/>
      <point x="141" y="277" type="line"/>
      <point x="188" y="501" type="line"/>
      <point x="116" y="501" type="line"/>
    </contour>
  </outline>
</glyph>
<glyph name="Lslash" format="2">
  <advance width="606"/>
  <unicode hex="0141"/>
  <outline>
    <contour>
      <point x="36" y="0" type="line"/>
      <point x="520" y="0" type="line"/>
      <point x="534" y="69" type="line"/>
      <point x="126" y="69" type="line"/>
      <point x="172" y="287" type="line"/>
      <point x="402" y="439" type="line"/>
      <point x="418" y="515" type="line"/>
      <point x="188" y="364" type="line"/>
      <point x="260" y="700" type="line"/>
      <point x="185" y="700" type="line"/>
      <point x="101" y="307" type="line"/>
      <point x="9" y="246" type="line"/>
      <point x="-6" y="170" type="line"/>
      <point x="85" y="230" type="line"/>
    </contour>
  </outline>
</glyph>
<glyph name="lslash" format="2">
  <advance width="236"/>
  <unicode hex="0142"/>
  <outline>
    <contour>
      <point x="31" y="0" type="line"/>
      <point x="103" y="0" type="line"/>
      <point x="182" y="372" type="line"/>
      <point x="272" y="435" type="line"/>
      <point x="288" y="510" type="line"/>
      <point x="198" y="447" type="line"/>
      <point x="255" y="717" type="line"/>
      <point x="180" y="700" type="line"/>
      <point x="113" y="387" type="line"/>
      <point x="29" y="328" type="line"/>
      <point x="13" y="254" type="line"/>
      <point x="98" y="313" type="line"/>
    </contour>
  </outline>
</glyph>
<glyph name="Eng" format="2">
  <advance width="711"/>
  <unicode hex="014A"/>
  <outline>
    <contour>
      <point x="420" y="-207" type="curve" smooth="yes"/>
      <point x="494" y="-207"/>
      <point x="546" y="-164"/>
      <point x="562" y="-87" type="curve" smooth="yes"/>
      <point x="730" y="700" type="line"/>
      <point x="659" y="700" type="line"/>
      <point x="537" y="127" type="line"/>
      <point x="244" y="700" type="line"/>
      <point x="171" y="700" type="line"/>
      <point x="22" y="0" type="line"/>
      <point x="93" y="0" type="line"/>
      <point x="218" y="587" type="line"/>
      <point x="512" y="11" type="line"/>
      <point x="493" y="-78" type="line" smooth="yes"/>
      <point x="483" y="-124"/>
      <point x="463" y="-143"/>
      <point x="423" y="-143" type="curve" smooth="yes"/>
      <point x="404" y="-143"/>
      <point x="392" y="-141"/>
      <point x="381" y="-137" type="curve"/>
      <point x="367" y="-199" type="line"/>
      <point x="381" y="-204"/>
      <point x="402" y="-207"/>
    </contour>
  </outline>
</glyph>
<glyph name="eng" format="2">
  <advance width="538"/>
  <unicode hex="014B"/>
  <outline>
    <contour>
      <point x="265" y="-207" type="curve" smooth="yes"/>
      <point x="340" y="-207"/>
      <point x="391" y="-163"/>
      <point x="407" y="-87" type="curve" smooth="yes"/>
      <point x="491" y="305" type="line" smooth="yes"/>
      <point x="516" y="423"/>
      <point x="448" y="510"/>
      <point x="329" y="510" type="curve" smooth="yes"/>
      <point x="272" y="510"/>
      <point x="221" y="490"/>
      <point x="177" y="451" type="curve"/>
      <point x="188" y="501" type="line"/>
      <point x="116" y="501" type="line"/>
      <point x="10" y="0" type="line"/>
      <point x="82" y="0" type="line"/>
      <point x="162" y="376" type="line"/>
      <point x="200" y="421"/>
      <point x="250" y="446"/>
      <point x="305" y="446" type="curve" smooth="yes"/>
      <point x="391" y="446"/>
      <point x="436" y="385"/>
      <point x="416" y="294" type="curve" smooth="yes"/>
      <point x="338" y="-78" type="line" smooth="yes"/>
      <point x="328" y="-124"/>
      <point x="307" y="-143"/>
      <point x="268" y="-143" type="curve" smooth="yes"/>
      <point x="249" y="-143"/>
      <point x="237" y="-141"/>
      <point x="226" y="-137" type="curve"/>
      <point x="212" y="-199" type="line"/>
      <point x="226" y="-204"/>
      <point x="248" y="-207"/>
    </contour>
  </outline>
</glyph>
<glyph name="oe" format="2">
  <advance width="982"/>
  <unicode hex="0153"/>
  <outline>
    <contour>
      <point x="272" y="-10" type="curve" smooth="yes"/>
      <point x="364" y="-10"/>
      <point x="446" y="42"/>
      <point x="495" y="118" type="curve"/>
      <point x="532" y="40"/>
      <point x="611" y="-9"/>
      <point x="711" y="-9" type="curve" smooth="yes"/>
      <point x="775" y="-9"/>
      <point x="832" y="7"/>
      <point x="887" y="45" type="curve"/>
      <point x="848" y="96" type="line"/>
      <point x="812" y="70"/>
      <point x="763" y="55"/>
      <point x="714" y="55" type="curve" smooth="yes"/>
      <point x="617" y="55"/>
      <point x="543" y="128"/>
      <point x="541" y="228" type="curve"/>
      <point x="942" y="228" type="line"/>
      <point x="944" y="244"/>
      <point x="945" y="259"/>
      <point x="945" y="273" type="curve" smooth="yes"/>
      <point x="945" y="408"/>
      <point x="854" y="509"/>
      <point x="731" y="509" type="curve"/>
      <point x="641" y="509"/>
      <point x="561" y="458"/>
      <point x="515" y="383" type="curve"/>
      <point x="478" y="460"/>
      <point x="401" y="511"/>
      <point x="308" y="511" type="curve" smooth="yes"/>
      <point x="162" y="511"/>
      <point x="39" y="382"/>
      <point x="39" y="229" type="curve" smooth="yes"/>
      <point x="39" y="92"/>
      <point x="138" y="-10"/>
    </contour>
    <contour>
      <point x="547" y="287" type="line"/>
      <point x="569" y="377"/>
      <point x="641" y="444"/>
      <point x="725" y="444" type="curve"/>
      <point x="808" y="444"/>
      <point x="869" y="378"/>
      <point x="875" y="287" type="curve"/>
    </contour>
    <contour>
      <point x="275" y="56" type="curve" smooth="yes"/>
      <point x="180" y="56"/>
      <point x="110" y="132"/>
      <point x="110" y="233" type="curve" smooth="yes"/>
      <point x="110" y="348"/>
      <point x="199" y="445"/>
      <point x="305" y="445" type="curve" smooth="yes"/>
      <point x="399" y="445"/>
      <point x="470" y="369"/>
      <point x="470" y="268" type="curve" smooth="yes"/>
      <point x="470" y="153"/>
      <point x="381" y="56"/>
    </contour>
  </outline>
</glyph>
<glyph name="scedilla" format="2">
  <advance width="438"/>
  <unicode hex="015F"/>
  <outline>
    <contour>
      <point x="148" y="-228" type="curve" smooth="yes"/>
      <point x="216" y="-228"/>
      <point x="267" y="-186"/>
      <point x="267" y="-129" type="curve" smooth="yes"/>
      <point x="267" y="-88"/>
      <point x="238" y="-61"/>
      <point x="189" y="-56" type="curve"/>
      <point x="212" y="-10" type="line"/>
      <point x="320" y="-5"/>
      <point x="399" y="62"/>
      <point x="399" y="149" type="curve" smooth="yes"/>
      <point x="399" y="215"/>
      <point x="359" y="255"/>
      <point x="271" y="275" type="curve" smooth="yes"/>
      <point x="189" y="294" type="line" smooth="yes"/>
      <point x="131" y="307"/>
      <point x="109" y="327"/>
      <point x="109" y="364" type="curve" smooth="yes"/>
      <point x="109" y="415"/>
      <point x="154" y="450"/>
      <point x="222" y="450" type="curve" smooth="yes"/>
      <point x="276" y="450"/>
      <point x="334" y="426"/>
      <point x="383" y="382" type="curve"/>
      <point x="427" y="430" type="line"/>
      <point x="368" y="483"/>
      <point x="300" y="509"/>
      <point x="226" y="509" type="curve" smooth="yes"/>
      <point x="116" y="509"/>
      <point x="43" y="449"/>
      <point x="43" y="358" type="curve" smooth="yes"/>
      <point x="43" y="291"/>
      <point x="82" y="251"/>
      <point x="167" y="232" type="curve" smooth="yes"/>
      <point x="249" y="213" type="line" smooth="yes"/>
      <point x="306" y="200"/>
      <point x="330" y="179"/>
      <point x="330" y="142" type="curve" smooth="yes"/>
      <point x="330" y="89"/>
      <point x="275" y="50"/>
      <point x="201" y="50" type="curve" smooth="yes"/>
      <point x="138" y="50"/>
      <point x="80" y="77"/>
      <point x="35" y="128" type="curve"/>
      <point x="-13" y="83" type="line"/>
      <point x="28" y="33"/>
      <point x="98" y="-1"/>
      <point x="170" y="-8" type="curve"/>
      <point x="129" y="-91" type="line"/>
      <point x="158" y="-91" type="line" smooth="yes"/>
      <point x="196" y="-91"/>
      <point x="219" y="-107"/>
      <point x="219" y="-134" type="curve" smooth="yes"/>
      <point x="219" y="-165"/>
      <point x="190" y="-186"/>
      <point x="149" y="-186" type="curve" smooth="yes"/>
      <point x="118" y="-186"/>
      <point x="93" y="-175"/>
      <point x="71" y="-151" type="curve"/>
      <point x="38" y="-181" type="line"/>
      <point x="62" y="-211"/>
      <point x="102" y="-228"/>
    </contour>
  </outline>
</glyph>
<glyph name="tcedilla" format="2">
  <advance width="357"/>
  <unicode hex="0163"/>
  <outline>
    <contour>
      <point x="148" y="-228" type="curve" smooth="yes"/>
      <point x="216" y="-228"/>
      <point x="267" y="-186"/>
      <point x="267" y="-129" type="curve" smooth="yes"/>
      <point x="267" y="-88"/>
      <point x="238" y="-61"/>
      <point x="189" y="-56" type="curve"/>
      <point x="213" y="-9" type="line"/>
      <point x="239" y="-9"/>
      <point x="266" y="-6"/>
      <point x="288" y="0" type="curve"/>
      <point x="301" y="65" type="line"/>
      <point x="277" y="58"/>
      <point x="261" y="55"/>
      <point x="243" y="55" type="curve" smooth="yes"/>
      <point x="177" y="55"/>
      <point x="157" y="77"/>
      <point x="169" y="135" type="curve" smooth="yes"/>
      <point x="234" y="438" type="line"/>
      <point x="380" y="438" type="line"/>
      <point x="394" y="501" type="line"/>
      <point x="248" y="501" type="line"/>
      <point x="279" y="647" type="line"/>
      <point x="202" y="628" type="line"/>
      <point x="175" y="501" type="line"/>
      <point x="70" y="501" type="line"/>
      <point x="56" y="438" type="line"/>
      <point x="162" y="438" type="line"/>
      <point x="95" y="119" type="line" smooth="yes"/>
      <point x="80" y="51"/>
      <point x="108" y="8"/>
      <point x="171" y="-5" type="curve"/>
      <point x="129" y="-91" type="line"/>
      <point x="158" y="-91" type="line" smooth="yes"/>
      <point x="196" y="-91"/>
      <point x="219" y="-107"/>
      <point x="219" y="-134" type="curve" smooth="yes"/>
      <point x="219" y="-165"/>
      <point x="190" y="-186"/>
      <point x="149" y="-186" type="curve" smooth="yes"/>
      <point x="118" y="-186"/>
      <point x="93" y="-175"/>
      <point x="71" y="-151" type="curve"/>
      <point x="38" y="-181" type="line"/>
      <point x="62" y="-211"/>
      <point x="102" y="-228"/>
    </contour>
  </outline>
</glyph>
<glyph name="tcaron" format="2">
  <advance width="359"/>
  <unicode hex="0165"/>
  <outline>
    <contour>
      <point x="215" y="-9" type="curve" smooth="yes"/>
      <point x="239" y="-9"/>
      <point x="266" y="-6"/>
      <point x="288" y="0" type="curve"/>
      <point x="301" y="65" type="line"/>
      <point x="277" y="58"/>
      <point x="261" y="55"/>
      <point x="243" y="55" type="curve" smooth="yes"/>
      <point x="177" y="55"/>
      <point x="157" y="77"/>
      <point x="169" y="135" type="curve" smooth="yes"/>
      <point x="234" y="438" type="line"/>
      <point x="380" y="438" type="line"/>
      <point x="394" y="501" type="line"/>
      <point x="248" y="501" type="line"/>
      <point x="279" y="647" type="line"/>
      <point x="202" y="628" type="line"/>
      <point x="175" y="501" type="line"/>
      <point x="70" y="501" type="line"/>
      <point x="56" y="438" type="line"/>
      <point x="162" y="438" type="line"/>
      <point x="95" y="119" type="line" smooth="yes"/>
      <point x="77" y="37"/>
      <point x="121" y="-9"/>
    </contour>
    <contour>
      <point x="340" y="582" type="line"/>
      <point x="398" y="582" type="line"/>
      <point x="460" y="782" type="line"/>
      <point x="385" y="767" type="line"/>
    </contour>
  </outline>
</glyph>
<glyph name="Tbar" format="2">
  <advance width="605"/>
  <unicode hex="0166"/>
  <outline>
    <contour>
      <point x="211" y="0" type="line"/>
      <point x="286" y="0" type="line"/>
      <point x="351" y="306" type="line"/>
      <point x="499" y="306" type="line"/>
      <point x="512" y="372" type="line"/>
      <point x="365" y="372" type="line"/>
      <point x="420" y="631" type="line"/>
      <point x="668" y="631" type="line"/>
      <point x="683" y="700" type="line"/>
      <point x="112" y="700" type="line"/>
      <point x="97" y="631" type="line"/>
      <point x="345" y="631" type="line"/>
      <point x="290" y="372" type="line"/>
      <point x="143" y="372" type="line"/>
      <point x="129" y="306" type="line"/>
      <point x="276" y="306" type="line"/>
    </contour>
  </outline>
</glyph>
<glyph name="tbar" format="2">
  <advance width="364"/>
  <unicode hex="0167"/>
  <outline>
    <contour>
      <point x="215" y="-9" type="curve" smooth="yes"/>
      <point x="239" y="-9"/>
      <point x="266" y="-6"/>
      <point x="288" y="0" type="curve"/>
      <point x="301" y="65" type="line"/>
      <point x="277" y="58"/>
      <point x="261" y="55"/>
      <point x="243" y="55" type="curve" smooth="yes"/>
      <point x="177" y="55"/>
      <point x="157" y="77"/>
      <point x="169" y="135" type="curve" smooth="yes"/>
      <point x="197" y="263" type="line"/>
      <point x="343" y="263" type="line"/>
      <point x="356" y="322" type="line"/>
      <point x="209" y="322" type="line"/>
      <point x="234" y="438" type="line"/>
      <point x="380" y="438" type="line"/>
      <point x="394" y="501" type="line"/>
      <point x="248" y="501" type="line"/>
      <point x="279" y="647" type="line"/>
      <point x="202" y="628" type="line"/>
      <point x="175" y="501" type="line"/>
      <point x="70" y="501" type="line"/>
      <point x="56" y="438" type="line"/>
      <point x="162" y="438" type="line"/>
      <point x="138" y="322" type="line"/>
      <point x="32" y="322" type="line"/>
      <point x="19" y="263" type="line"/>
      <point x="125" y="263" type="line"/>
      <point x="95" y="119" type="line" smooth="yes"/>
      <point x="77" y="37"/>
      <point x="121" y="-9"/>
    </contour>
  </outline>
</glyph>
<glyph name="Uogonek" format="2">
  <advance width="690"/>
  <unicode hex="0172"/>
  <outline>
    <contour>
      <point x="306" y="-222" type="curve" smooth="yes"/>
      <point x="329" y="-222"/>
      <point x="351" y="-216"/>
      <point x="372" y="-206" type="curve"/>
      <point x="367" y="-166" type="line"/>
      <point x="353" y="-173"/>
      <point x="336" y="-177"/>
      <point x="321" y="-177" type="curve" smooth="yes"/>
      <point x="291" y="-177"/>
      <point x="271" y="-160"/>
      <point x="271" y="-134" type="curve" smooth="yes"/>
      <point x="271" y="-88"/>
      <point x="312" y="-47"/>
      <point x="401" y="-1" type="curve"/>
      <point x="519" y="30"/>
      <point x="601" y="131"/>
      <point x="635" y="290" type="curve" smooth="yes"/>
      <point x="723" y="700" type="line"/>
      <point x="647" y="700" type="line"/>
      <point x="560" y="293" type="line" smooth="yes"/>
      <point x="529" y="147"/>
      <point x="440" y="60"/>
      <point x="321" y="60" type="curve" smooth="yes"/>
      <point x="189" y="60"/>
      <point x="117" y="159"/>
      <point x="147" y="299" type="curve" smooth="yes"/>
      <point x="233" y="700" type="line"/>
      <point x="157" y="700" type="line"/>
      <point x="73" y="303" type="line" smooth="yes"/>
      <point x="33" y="119"/>
      <point x="132" y="-11"/>
      <point x="321" y="-11" type="curve"/>
      <point x="252" y="-55"/>
      <point x="218" y="-100"/>
      <point x="218" y="-149" type="curve" smooth="yes"/>
      <point x="218" y="-193"/>
      <point x="253" y="-222"/>
    </contour>
  </outline>
</glyph>
<glyph name="uogonek" format="2">
  <advance width="538"/>
  <unicode hex="0173"/>
  <outline>
    <contour>
      <point x="325" y="-222" type="curve" smooth="yes"/>
      <point x="348" y="-222"/>
      <point x="370" y="-216"/>
      <point x="391" y="-206" type="curve"/>
      <point x="386" y="-166" type="line"/>
      <point x="372" y="-173"/>
      <point x="355" y="-177"/>
      <point x="340" y="-177" type="curve" smooth="yes"/>
      <point x="310" y="-177"/>
      <point x="290" y="-160"/>
      <point x="290" y="-134" type="curve" smooth="yes"/>
      <point x="290" y="-88"/>
      <point x="331" y="-47"/>
      <point x="421" y="0" type="curve"/>
      <point x="528" y="501" type="line"/>
      <point x="456" y="501" type="line"/>
      <point x="376" y="127" type="line"/>
      <point x="338" y="80"/>
      <point x="288" y="55"/>
      <point x="232" y="55" type="curve" smooth="yes"/>
      <point x="146" y="55"/>
      <point x="101" y="116"/>
      <point x="121" y="208" type="curve" smooth="yes"/>
      <point x="183" y="501" type="line"/>
      <point x="111" y="501" type="line"/>
      <point x="47" y="200" type="line" smooth="yes"/>
      <point x="22" y="80"/>
      <point x="90" y="-9"/>
      <point x="209" y="-9" type="curve" smooth="yes"/>
      <point x="265" y="-9"/>
      <point x="316" y="11"/>
      <point x="360" y="50" type="curve"/>
      <point x="349" y="0" type="line"/>
      <point x="359" y="0" type="line"/>
      <point x="278" y="-47"/>
      <point x="237" y="-96"/>
      <point x="237" y="-149" type="curve" smooth="yes"/>
      <point x="237" y="-193"/>
      <point x="272" y="-222"/>
    </contour>
  </outline>
</glyph>
<glyph name="uni02BB" format="2">
  <advance width="250"/>
  <unicode hex="02BB"/>
  <outline>
    <contour>
      <point x="291" y="719" type="line"/>
      <point x="233" y="719" type="line"/>
      <point x="110" y="508" type="line"/>
      <point x="190" y="508" type="line"/>
    </contour>
  </outline>
</glyph>
<glyph name="breve" format="2">
  <advance width="600"/>
  <unicode hex="02D8"/>
  <outline>
    <contour>
      <point x="385" y="591" type="curve" smooth="yes"/>
      <point x="457" y="591"/>
      <point x="517" y="634"/>
      <point x="550" y="710" type="curve"/>
      <point x="500" y="726" type="line"/>
      <point x="474" y="670"/>
      <point x="435" y="640"/>
      <point x="387" y="640" type="curve" smooth="yes"/>
      <point x="333" y="640"/>
      <point x="302" y="671"/>
      <point x="301" y="729" type="curve"/>
      <point x="250" y="720" type="line"/>
      <point x="250" y="643"/>
      <point x="304" y="591"/>
    </contour>
  </outline>
</glyph>
<glyph name="dotaccent" format="2">
  <advance width="600"/>
  <unicode hex="02D9"/>
  <outline>
    <contour>
      <point x="380" y="602" type="curve" smooth="yes"/>
      <point x="408" y="602"/>
      <point x="434" y="628"/>
      <point x="434" y="656" type="curve" smooth="yes"/>
      <point x="434" y="680"/>
      <point x="415" y="700"/>
      <point x="391" y="700" type="curve" smooth="yes"/>
      <point x="362" y="700"/>
      <point x="337" y="674"/>
      <point x="337" y="646" type="curve" smooth="yes"/>
      <point x="337" y="621"/>
      <point x="355" y="602"/>
    </contour>
  </outline>
</glyph>
<glyph name="ring" format="2">
  <advance width="600"/>
  <unicode hex="02DA"/>
  <outline>
    <contour>
      <point x="386" y="582" type="curve" smooth="yes"/>
      <point x="450" y="582"/>
      <point x="505" y="640"/>
      <point x="505" y="706" type="curve" smooth="yes"/>
      <point x="505" y="763"/>
      <point x="463" y="804"/>
      <point x="403" y="804" type="curve" smooth="yes"/>
      <point x="340" y="804"/>
      <point x="285" y="746"/>
      <point x="285" y="680" type="curve" smooth="yes"/>
      <point x="285" y="623"/>
      <point x="327" y="582"/>
    </contour>
    <contour>
      <point x="386" y="622" type="curve" smooth="yes"/>
      <point x="353" y="622"/>
      <point x="327" y="648"/>
      <point x="327" y="683" type="curve" smooth="yes"/>
      <point x="327" y="727"/>
      <point x="363" y="763"/>
      <point x="403" y="763" type="curve" smooth="yes"/>
      <point x="437" y="763"/>
      <point x="462" y="737"/>
      <point x="462" y="702" type="curve" smooth="yes"/>
      <point x="462" y="659"/>
      <point x="427" y="622"/>
    </contour>
  </outline>
</glyph>
<glyph name="guilsinglleft" format="2">
  <advance width="381"/>
  <unicode hex="2039"/>
  <outline>
    <contour>
      <point x="393" y="501" type="line"/>
      <point x="313" y="501" type="line"/>
      <point x="29" y="251" type="line"/>
      <point x="206" y="0" type="line"/>
      <point x="283" y="0" type="line"/>
      <point x="112" y="248" type="line"/>
    </contour>
  </outline>
</glyph>
<glyph name="guilsinglright" format="2">
  <advance width="389"/>
  <unicode hex="203A"/>
  <outline>
    <contour>
      <point x="-4" y="0" type="line"/>
      <point x="76" y="0" type="line"/>
      <point x="360" y="250" type="line"/>
      <point x="183" y="501" type="line"/>
      <point x="106" y="501" type="line"/>
      <point x="277" y="253" type="line"/>
    </contour>
  </outline>
</glyph>
<glyph name="uni2075" format="2">
  <advance width="298"/>
  <unicode hex="2075"/>
  <outline>
    <contour>
      <point x="181" y="346" type="curve" smooth="yes"/>
      <point x="259" y="346"/>
      <point x="322" y="401"/>
      <point x="322" y="471" type="curve" smooth="yes"/>
      <point x="322" y="529"/>
      <point x="275" y="568"/>
      <point x="205" y="568" type="curve" smooth="yes"/>
      <point x="187" y="568"/>
      <point x="169" y="566"/>
      <point x="150" y="561" type="curve"/>
      <point x="174" y="655" type="line"/>
      <point x="344" y="655" type="line"/>
      <point x="353" y="700" type="line"/>
      <point x="140" y="700" type="line"/>
      <point x="98" y="530" type="line"/>
      <point x="127" y="517" type="line"/>
      <point x="147" y="523"/>
      <point x="168" y="527"/>
      <point x="189" y="527" type="curve" smooth="yes"/>
      <point x="239" y="527"/>
      <point x="269" y="503"/>
      <point x="269" y="465" type="curve" smooth="yes"/>
      <point x="269" y="422"/>
      <point x="232" y="390"/>
      <point x="183" y="390" type="curve" smooth="yes"/>
      <point x="144" y="390"/>
      <point x="115" y="404"/>
      <point x="89" y="435" type="curve"/>
      <point x="53" y="402" type="line"/>
      <point x="81" y="366"/>
      <point x="127" y="346"/>
    </contour>
  </outline>
</glyph>
<glyph name="uni2076" format="2">
  <advance width="322"/>
  <unicode hex="2076"/>
  <outline>
    <contour>
      <point x="206" y="346" type="curve" smooth="yes"/>
      <point x="280" y="346"/>
      <point x="342" y="403"/>
      <point x="342" y="471" type="curve" smooth="yes"/>
      <point x="342" y="527"/>
      <point x="297" y="567"/>
      <point x="236" y="567" type="curve" smooth="yes"/>
      <point x="201" y="567"/>
      <point x="165" y="553"/>
      <point x="137" y="529" type="curve"/>
      <point x="153" y="604"/>
      <point x="206" y="658"/>
      <point x="269" y="658" type="curve" smooth="yes"/>
      <point x="295" y="658"/>
      <point x="319" y="649"/>
      <point x="338" y="633" type="curve"/>
      <point x="373" y="669" type="line"/>
      <point x="347" y="691"/>
      <point x="312" y="703"/>
      <point x="276" y="703" type="curve" smooth="yes"/>
      <point x="170" y="703"/>
      <point x="81" y="603"/>
      <point x="81" y="482" type="curve" smooth="yes"/>
      <point x="81" y="399"/>
      <point x="131" y="346"/>
    </contour>
    <contour>
      <point x="210" y="390" type="curve" smooth="yes"/>
      <point x="161" y="390"/>
      <point x="130" y="425"/>
      <point x="132" y="489" type="curve"/>
      <point x="159" y="513"/>
      <point x="191" y="527"/>
      <point x="222" y="527" type="curve" smooth="yes"/>
      <point x="263" y="527"/>
      <point x="292" y="501"/>
      <point x="292" y="464" type="curve" smooth="yes"/>
      <point x="292" y="424"/>
      <point x="254" y="390"/>
    </contour>
  </outline>
</glyph>
<glyph name="uni2077" format="2">
  <advance width="293"/>
  <unicode hex="2077"/>
  <outline>
    <contour>
      <point x="74" y="350" type="line"/>
      <point x="137" y="350" type="line"/>
      <point x="369" y="661" type="line"/>
      <point x="377" y="700" type="line"/>
      <point x="111" y="700" type="line"/>
      <point x="102" y="655" type="line"/>
      <point x="308" y="655" type="line"/>
    </contour>
  </outline>
</glyph>
<glyph name="uni2078" format="2">
  <advance width="321"/>
  <unicode hex="2078"/>
  <outline>
    <contour>
      <point x="194" y="345" type="curve" smooth="yes"/>
      <point x="273" y="345"/>
      <point x="335" y="393"/>
      <point x="335" y="454" type="curve" smooth="yes"/>
      <point x="335" y="486"/>
      <point x="316" y="513"/>
      <point x="285" y="527" type="curve"/>
      <point x="327" y="543"/>
      <point x="357" y="578"/>
      <point x="357" y="618" type="curve" smooth="yes"/>
      <point x="357" y="668"/>
      <point x="310" y="705"/>
      <point x="245" y="705" type="curve" smooth="yes"/>
      <point x="174" y="705"/>
      <point x="115" y="659"/>
      <point x="115" y="602" type="curve" smooth="yes"/>
      <point x="115" y="575"/>
      <point x="130" y="551"/>
      <point x="154" y="537" type="curve"/>
      <point x="105" y="523"/>
      <point x="69" y="483"/>
      <point x="69" y="437" type="curve" smooth="yes"/>
      <point x="69" y="383"/>
      <point x="120" y="345"/>
    </contour>
    <contour>
      <point x="231" y="552" type="curve" smooth="yes"/>
      <point x="194" y="552"/>
      <point x="166" y="574"/>
      <point x="166" y="602" type="curve" smooth="yes"/>
      <point x="166" y="636"/>
      <point x="199" y="663"/>
      <point x="241" y="663" type="curve" smooth="yes"/>
      <point x="278" y="663"/>
      <point x="306" y="642"/>
      <point x="306" y="613" type="curve" smooth="yes"/>
      <point x="306" y="580"/>
      <point x="271" y="552"/>
    </contour>
    <contour>
      <point x="198" y="388" type="curve" smooth="yes"/>
      <point x="152" y="388"/>
      <point x="120" y="411"/>
      <point x="120" y="445" type="curve" smooth="yes"/>
      <point x="120" y="482"/>
      <point x="159" y="511"/>
      <point x="207" y="511" type="curve" smooth="yes"/>
      <point x="252" y="511"/>
      <point x="285" y="488"/>
      <point x="285" y="454" type="curve" smooth="yes"/>
      <point x="285" y="418"/>
      <point x="246" y="388"/>
    </contour>
  </outline>
</glyph>
<glyph name="uni2079" format="2">
  <advance width="322"/>
  <unicode hex="2079"/>
  <outline>
    <contour>
      <point x="231" y="703" type="curve" smooth="yes"/>
      <point x="157" y="703"/>
      <point x="95" y="646"/>
      <point x="95" y="578" type="curve" smooth="yes"/>
      <point x="95" y="522"/>
      <point x="140" y="482"/>
      <point x="201" y="482" type="curve" smooth="yes"/>
      <point x="236" y="482"/>
      <point x="272" y="496"/>
      <point x="300" y="520" type="curve"/>
      <point x="284" y="445"/>
      <point x="231" y="391"/>
      <point x="168" y="391" type="curve" smooth="yes"/>
      <point x="142" y="391"/>
      <point x="118" y="400"/>
      <point x="99" y="416" type="curve"/>
      <point x="64" y="380" type="line"/>
      <point x="90" y="358"/>
      <point x="125" y="346"/>
      <point x="161" y="346" type="curve" smooth="yes"/>
      <point x="267" y="346"/>
      <point x="356" y="446"/>
      <point x="356" y="567" type="curve" smooth="yes"/>
      <point x="356" y="650"/>
      <point x="306" y="703"/>
    </contour>
    <contour>
      <point x="227" y="659" type="curve" smooth="yes"/>
      <point x="276" y="659"/>
      <point x="307" y="624"/>
      <point x="305" y="560" type="curve"/>
      <point x="278" y="536"/>
      <point x="246" y="522"/>
      <point x="215" y="522" type="curve" smooth="yes"/>
      <point x="174" y="522"/>
      <point x="145" y="548"/>
      <point x="145" y="585" type="curve" smooth="yes"/>
      <point x="145" y="625"/>
      <point x="183" y="659"/>
    </contour>
  </outline>
</glyph>
<glyph name="uni2082" format="2">
  <advance width="286"/>
  <unicode hex="2082"/>
  <outline>
    <contour>
      <point x="-27" y="0" type="line"/>
      <point x="212" y="0" type="line"/>
      <point x="221" y="44" type="line"/>
      <point x="57" y="44" type="line"/>
      <point x="186" y="145" type="line" smooth="yes"/>
      <point x="241" y="187"/>
      <point x="262" y="221"/>
      <point x="262" y="265" type="curve" smooth="yes"/>
      <point x="262" y="317"/>
      <point x="218" y="354"/>
      <point x="154" y="354" type="curve" smooth="yes"/>
      <point x="113" y="354"/>
      <point x="71" y="339"/>
      <point x="28" y="309" type="curve"/>
      <point x="50" y="271" type="line"/>
      <point x="89" y="299"/>
      <point x="116" y="310"/>
      <point x="145" y="310" type="curve" smooth="yes"/>
      <point x="183" y="310"/>
      <point x="210" y="288"/>
      <point x="210" y="257" type="curve" smooth="yes"/>
      <point x="210" y="229"/>
      <point x="194" y="205"/>
      <point x="155" y="174" type="curve" smooth="yes"/>
      <point x="-19" y="37" type="line"/>
    </contour>
  </outline>
</glyph>
<glyph name="uni2083" format="2">
  <advance width="306"/>
  <unicode hex="2083"/>
  <outline>
    <contour>
      <point x="110" y="-5" type="curve" smooth="yes"/>
      <point x="186" y="-5"/>
      <point x="246" y="43"/>
      <point x="246" y="103" type="curve" smooth="yes"/>
      <point x="246" y="135"/>
      <point x="227" y="160"/>
      <point x="195" y="173" type="curve"/>
      <point x="239" y="189"/>
      <point x="269" y="223"/>
      <point x="269" y="264" type="curve" smooth="yes"/>
      <point x="269" y="317"/>
      <point x="222" y="354"/>
      <point x="158" y="354" type="curve" smooth="yes"/>
      <point x="114" y="354"/>
      <point x="70" y="338"/>
      <point x="33" y="309" type="curve"/>
      <point x="59" y="273" type="line"/>
      <point x="90" y="297"/>
      <point x="119" y="308"/>
      <point x="151" y="308" type="curve" smooth="yes"/>
      <point x="190" y="308"/>
      <point x="217" y="287"/>
      <point x="217" y="257" type="curve" smooth="yes"/>
      <point x="217" y="222"/>
      <point x="181" y="196"/>
      <point x="135" y="196" type="curve" smooth="yes"/>
      <point x="108" y="196" type="line"/>
      <point x="99" y="154" type="line"/>
      <point x="130" y="154" type="line" smooth="yes"/>
      <point x="169" y="154"/>
      <point x="195" y="133"/>
      <point x="195" y="101" type="curve" smooth="yes"/>
      <point x="195" y="66"/>
      <point x="160" y="40"/>
      <point x="113" y="40" type="curve" smooth="yes"/>
      <point x="70" y="40"/>
      <point x="39" y="55"/>
      <point x="16" y="87" type="curve"/>
      <point x="-23" y="56" type="line"/>
      <point x="6" y="16"/>
      <point x="51" y="-5"/>
    </contour>
  </outline>
</glyph>
<glyph name="uni2084" format="2">
  <advance width="324"/>
  <unicode hex="2084"/>
  <outline>
    <contour>
      <point x="162" y="0" type="line"/>
      <point x="213" y="0" type="line"/>
      <point x="232" y="88" type="line"/>
      <point x="273" y="88" type="line"/>
      <point x="283" y="132" type="line"/>
      <point x="241" y="132" type="line"/>
      <point x="287" y="350" type="line"/>
      <point x="230" y="350" type="line"/>
      <point x="-5" y="130" type="line"/>
      <point x="-14" y="88" type="line"/>
      <point x="181" y="88" type="line"/>
    </contour>
    <contour>
      <point x="56" y="132" type="line"/>
      <point x="224" y="289" type="line"/>
      <point x="190" y="132" type="line"/>
    </contour>
  </outline>
</glyph>
<glyph name="uni2085" format="2">
  <advance width="298"/>
  <unicode hex="2085"/>
  <outline>
    <contour>
      <point x="107" y="-4" type="curve" smooth="yes"/>
      <point x="185" y="-4"/>
      <point x="248" y="51"/>
      <point x="248" y="121" type="curve" smooth="yes"/>
      <point x="248" y="179"/>
      <point x="201" y="218"/>
      <point x="131" y="218" type="curve" smooth="yes"/>
      <point x="113" y="218"/>
      <point x="95" y="216"/>
      <point x="76" y="211" type="curve"/>
      <point x="100" y="305" type="line"/>
      <point x="270" y="305" type="line"/>
      <point x="279" y="350" type="line"/>
      <point x="66" y="350" type="line"/>
      <point x="24" y="180" type="line"/>
      <point x="53" y="167" type="line"/>
      <point x="73" y="173"/>
      <point x="94" y="177"/>
      <point x="115" y="177" type="curve" smooth="yes"/>
      <point x="165" y="177"/>
      <point x="195" y="153"/>
      <point x="195" y="115" type="curve" smooth="yes"/>
      <point x="195" y="72"/>
      <point x="158" y="40"/>
      <point x="109" y="40" type="curve" smooth="yes"/>
      <point x="70" y="40"/>
      <point x="41" y="54"/>
      <point x="15" y="85" type="curve"/>
      <point x="-21" y="52" type="line"/>
      <point x="7" y="16"/>
      <point x="53" y="-4"/>
    </contour>
  </outline>
</glyph>
<glyph name="uni2086" format="2">
  <advance width="322"/>
  <unicode hex="2086"/>
  <outline>
    <contour>
      <point x="132" y="-4" type="curve" smooth="yes"/>
      <point x="206" y="-4"/>
      <point x="268" y="53"/>
      <point x="268" y="121" type="curve" smooth="yes"/>
      <point x="268" y="177"/>
      <point x="223" y="217"/>
      <point x="162" y="217" type="curve" smooth="yes"/>
      <point x="127" y="217"/>
      <point x="91" y="203"/>
      <point x="63" y="179" type="curve"/>
      <point x="79" y="254"/>
      <point x="132" y="308"/>
      <point x="195" y="308" type="curve" smooth="yes"/>
      <point x="221" y="308"/>
      <point x="245" y="299"/>
      <point x="264" y="283" type="curve"/>
      <point x="299" y="319" type="line"/>
      <point x="273" y="341"/>
      <point x="238" y="353"/>
      <point x="202" y="353" type="curve" smooth="yes"/>
      <point x="96" y="353"/>
      <point x="7" y="253"/>
      <point x="7" y="132" type="curve" smooth="yes"/>
      <point x="7" y="49"/>
      <point x="57" y="-4"/>
    </contour>
    <contour>
      <point x="136" y="40" type="curve" smooth="yes"/>
      <point x="87" y="40"/>
      <point x="56" y="75"/>
      <point x="58" y="139" type="curve"/>
      <point x="85" y="163"/>
      <point x="117" y="177"/>
      <point x="148" y="177" type="curve" smooth="yes"/>
      <point x="189" y="177"/>
      <point x="218" y="151"/>
      <point x="218" y="114" type="curve" smooth="yes"/>
      <point x="218" y="74"/>
      <point x="180" y="40"/>
    </contour>
  </outline>
</glyph>
<glyph name="uni2087" format="2">
  <advance width="293"/>
  <unicode hex="2087"/>
  <outline>
    <contour>
      <point x="0" y="0" type="line"/>
      <point x="63" y="0" type="line"/>
      <point x="295" y="311" type="line"/>
      <point x="303" y="350" type="line"/>
      <point x="37" y="350" type="line"/>
      <point x="28" y="305" type="line"/>
      <point x="234" y="305" type="line"/>
    </contour>
  </outline>
</glyph>
<glyph name="uni2088" format="2">
  <advance width="321"/>
  <unicode hex="2088"/>
  <outline>
    <contour>
      <point x="120" y="-5" type="curve" smooth="yes"/>
      <point x="199" y="-5"/>
      <point x="261" y="43"/>
      <point x="261" y="104" type="curve" smooth="yes"/>
      <point x="261" y="136"/>
      <point x="242" y="163"/>
      <point x="211" y="177" type="curve"/>
      <point x="253" y="193"/>
      <point x="283" y="228"/>
      <point x="283" y="268" type="curve" smooth="yes"/>
      <point x="283" y="318"/>
      <point x="236" y="355"/>
      <point x="171" y="355" type="curve" smooth="yes"/>
      <point x="100" y="355"/>
      <point x="41" y="309"/>
      <point x="41" y="252" type="curve" smooth="yes"/>
      <point x="41" y="225"/>
      <point x="56" y="201"/>
      <point x="80" y="187" type="curve"/>
      <point x="31" y="173"/>
      <point x="-5" y="133"/>
      <point x="-5" y="87" type="curve" smooth="yes"/>
      <point x="-5" y="33"/>
      <point x="46" y="-5"/>
    </contour>
    <contour>
      <point x="157" y="202" type="curve" smooth="yes"/>
      <point x="120" y="202"/>
      <point x="92" y="224"/>
      <point x="92" y="252" type="curve" smooth="yes"/>
      <point x="92" y="286"/>
      <point x="125" y="313"/>
      <point x="167" y="313" type="curve" smooth="yes"/>
      <point x="204" y="313"/>
      <point x="232" y="292"/>
      <point x="232" y="263" type="curve" smooth="yes"/>
      <point x="232" y="230"/>
      <point x="197" y="202"/>
    </contour>
    <contour>
      <point x="124" y="38" type="curve" smooth="yes"/>
      <point x="78" y="38"/>
      <point x="46" y="61"/>
      <point x="46" y="95" type="curve" smooth="yes"/>
      <point x="46" y="132"/>
      <point x="85" y="161"/>
      <point x="133" y="161" type="curve" smooth="yes"/>
      <point x="178" y="161"/>
      <point x="211" y="138"/>
      <point x="211" y="104" type="curve" smooth="yes"/>
      <point x="211" y="68"/>
      <point x="172" y="38"/>
    </contour>
  </outline>
</glyph>
<glyph name="uni2089" format="2">
  <advance width="322"/>
  <unicode hex="2089"/>
  <outline>
    <contour>
      <point x="157" y="353" type="curve" smooth="yes"/>
      <point x="83" y="353"/>
      <point x="21" y="296"/>
      <point x="21" y="228" type="curve" smooth="yes"/>
      <point x="21" y="172"/>
      <point x="66" y="132"/>
      <point x="127" y="132" type="curve" smooth="yes"/>
      <point x="162" y="132"/>
      <point x="198" y="146"/>
      <point x="226" y="170" type="curve"/>
      <point x="210" y="95"/>
      <point x="157" y="41"/>
      <point x="94" y="41" type="curve" smooth="yes"/>
      <point x="68" y="41"/>
      <point x="44" y="50"/>
      <point x="25" y="66" type="curve"/>
      <point x="-10" y="30" type="line"/>
      <point x="16" y="8"/>
      <point x="51" y="-4"/>
      <point x="87" y="-4" type="curve" smooth="yes"/>
      <point x="193" y="-4"/>
      <point x="282" y="96"/>
      <point x="282" y="217" type="curve" smooth="yes"/>
      <point x="282" y="300"/>
      <point x="232" y="353"/>
    </contour>
    <contour>
      <point x="153" y="309" type="curve" smooth="yes"/>
      <point x="202" y="309"/>
      <point x="233" y="274"/>
      <point x="231" y="210" type="curve"/>
      <point x="204" y="186"/>
      <point x="172" y="172"/>
      <point x="141" y="172" type="curve" smooth="yes"/>
      <point x="100" y="172"/>
      <point x="71" y="198"/>
      <point x="71" y="235" type="curve" smooth="yes"/>
      <point x="71" y="275"/>
      <point x="109" y="309"/>
    </contour>
  </outline>
</glyph>
<glyph name="Euro" format="2">
  <advance width="759"/>
  <unicode hex="20AC"/>
  <outline>
    <contour>
      <point x="430" y="-10" type="curve" smooth="yes"/>
      <point x="526" y="-10"/>
      <point x="617" y="28"/>
      <point x="686" y="97" type="curve"/>
      <point x="642" y="139" type="line"/>
      <point x="586" y="84"/>
      <point x="512" y="54"/>
      <point x="435" y="54" type="curve" smooth="yes"/>
      <point x="306" y="54"/>
      <point x="219" y="133"/>
      <point x="208" y="259" type="curve"/>
      <point x="420" y="259" type="line"/>
      <point x="448" y="310" type="line"/>
      <point x="208" y="310" type="line"/>
      <point x="209" y="339"/>
      <point x="214" y="367"/>
      <point x="221" y="393" type="curve"/>
      <point x="494" y="393" type="line"/>
      <point x="523" y="443" type="line"/>
      <point x="238" y="443" type="line"/>
      <point x="289" y="563"/>
      <point x="395" y="647"/>
      <point x="518" y="647" type="curve" smooth="yes"/>
      <point x="609" y="647"/>
      <point x="688" y="603"/>
      <point x="725" y="529" type="curve"/>
      <point x="784" y="564" type="line"/>
      <point x="738" y="657"/>
      <point x="645" y="709"/>
      <point x="527" y="709" type="curve" smooth="yes"/>
      <point x="364" y="709"/>
      <point x="224" y="599"/>
      <point x="166" y="443" type="curve"/>
      <point x="73" y="443" type="line"/>
      <point x="61" y="393" type="line"/>
      <point x="150" y="393" type="line"/>
      <point x="144" y="366"/>
      <point x="139" y="339"/>
      <point x="138" y="310" type="curve"/>
      <point x="44" y="310" type="line"/>
      <point x="33" y="259" type="line"/>
      <point x="138" y="259" type="line"/>
      <point x="148" y="97"/>
      <point x="262" y="-10"/>
    </contour>
  </outline>
</glyph>
<glyph name="trademark" format="2">
  <advance width="662"/>
  <unicode hex="2122"/>
  <outline>
    <contour>
      <point x="353" y="421" type="line"/>
      <point x="395" y="421" type="line"/>
      <point x="442" y="648" type="line"/>
      <point x="499" y="440" type="line"/>
      <point x="640" y="641" type="line"/>
      <point x="592" y="421" type="line"/>
      <point x="633" y="421" type="line"/>
      <point x="693" y="700" type="line"/>
      <point x="639" y="700" type="line"/>
      <point x="514" y="519" type="line"/>
      <point x="465" y="700" type="line"/>
      <point x="413" y="700" type="line"/>
    </contour>
    <contour>
      <point x="165" y="421" type="line"/>
      <point x="208" y="421" type="line"/>
      <point x="259" y="662" type="line"/>
      <point x="356" y="662" type="line"/>
      <point x="365" y="700" type="line"/>
      <point x="128" y="700" type="line"/>
      <point x="119" y="662" type="line"/>
      <point x="216" y="662" type="line"/>
    </contour>
  </outline>
</glyph>
<glyph name="uni2193" format="2">
  <advance width="505"/>
  <unicode hex="2193"/>
  <outline>
    <contour>
      <point x="285" y="700" type="line"/>
      <point x="217" y="700" type="line"/>
      <point x="217" y="86" type="line"/>
      <point x="52" y="305" type="line"/>
      <point x="5" y="268" type="line"/>
      <point x="250" y="-50" type="line"/>
      <point x="496" y="268" type="line"/>
      <point x="448" y="306" type="line"/>
      <point x="285" y="91" type="line"/>
    </contour>
  </outline>
</glyph>
<glyph name="uni2215" format="2">
  <advance width="566"/>
  <unicode hex="2215"/>
  <outline>
    <contour>
      <point x="3" y="0" type="line"/>
      <point x="61" y="0" type="line"/>
      <point x="598" y="700" type="line"/>
      <point x="537" y="700" type="line"/>
    </contour>
  </outline>
</glyph>
<glyph name="uniFFFD" format="2">
  <advance width="514"/>
  <unicode hex="FFFD"/>
  <outline>
    <contour>
      <point x="61" y="-100" type="line"/>
      <point x="455" y="-100" type="line"/>
      <point x="455" y="750" type="line"/>
      <point x="61" y="750" type="line"/>
    </contour>
  </outline>
</glyph>
<glyph name="caronSlovak" format="2">
  <advance width="600"/>
  <outline>
    <contour>
      <point x="318" y="508" type="line"/>
      <point x="376" y="508" type="line"/>
      <point x="442" y="718" type="line"/>
      <point x="367" y="703" type="line"/>
    </contour>
  </outline>
</glyph>
<glyph name="exclamdown.cap" format="2">
  <advance width="173"/>
  <outline>
    <contour>
      <point x="163" y="511" type="line"/>
      <point x="105" y="511" type="line"/>
      <point x="-13" y="0" type="line"/>
      <point x="63" y="0" type="line"/>
    </contour>
    <contour>
      <point x="172" y="711" type="curve" smooth="yes"/>
      <point x="143" y="711"/>
      <point x="116" y="684"/>
      <point x="116" y="655" type="curve" smooth="yes"/>
      <point x="116" y="629"/>
      <point x="135" y="609"/>
      <point x="160" y="609" type="curve" smooth="yes"/>
      <point x="190" y="609"/>
      <point x="217" y="636"/>
      <point x="217" y="666" type="curve" smooth="yes"/>
      <point x="217" y="691"/>
      <point x="198" y="711"/>
    </contour>
  </outline>
</glyph>
<glyph name="g.alt" format="2">
  <advance width="520"/>
  <note>
Version created Sun Jan 13 16:53:00 2019
</note>
  <anchor x="295" y="501" name="top"/>
  <outline>
    <contour>
      <point x="205" y="-211" type="curve" smooth="yes"/>
      <point x="355" y="-211"/>
      <point x="456" y="-150"/>
      <point x="456" y="-58" type="curve" smooth="yes"/>
      <point x="456" y="-7"/>
      <point x="419" y="26"/>
      <point x="348" y="35" type="curve" smooth="yes"/>
      <point x="170" y="58" type="line" smooth="yes"/>
      <point x="135" y="62"/>
      <point x="118" y="75"/>
      <point x="118" y="96" type="curve" smooth="yes"/>
      <point x="118" y="122"/>
      <point x="141" y="142"/>
      <point x="179" y="150" type="curve"/>
      <point x="201" y="142"/>
      <point x="226" y="138"/>
      <point x="253" y="138" type="curve" smooth="yes"/>
      <point x="375" y="138"/>
      <point x="475" y="228"/>
      <point x="475" y="340" type="curve" smooth="yes"/>
      <point x="475" y="374"/>
      <point x="465" y="405"/>
      <point x="446" y="431" type="curve"/>
      <point x="466" y="449"/>
      <point x="494" y="459"/>
      <point x="524" y="459" type="curve" smooth="yes"/>
      <point x="536" y="459"/>
      <point x="549" y="458"/>
      <point x="563" y="454" type="curve"/>
      <point x="574" y="518" type="line"/>
      <point x="565" y="521"/>
      <point x="555" y="522"/>
      <point x="543" y="522" type="curve" smooth="yes"/>
      <point x="497" y="522"/>
      <point x="452" y="496"/>
      <point x="425" y="456" type="curve"/>
      <point x="391" y="488"/>
      <point x="343" y="507"/>
      <point x="289" y="507" type="curve" smooth="yes"/>
      <point x="168" y="507"/>
      <point x="64" y="413"/>
      <point x="64" y="303" type="curve" smooth="yes"/>
      <point x="64" y="249"/>
      <point x="91" y="203"/>
      <point x="133" y="173" type="curve"/>
      <point x="82" y="157"/>
      <point x="47" y="120"/>
      <point x="47" y="77" type="curve" smooth="yes"/>
      <point x="47" y="55"/>
      <point x="57" y="36"/>
      <point x="74" y="22" type="curve"/>
      <point x="-2" y="0"/>
      <point x="-45" y="-42"/>
      <point x="-45" y="-93" type="curve" smooth="yes"/>
      <point x="-45" y="-165"/>
      <point x="52" y="-211"/>
    </contour>
    <contour>
      <point x="258" y="197" type="curve" smooth="yes"/>
      <point x="187" y="197"/>
      <point x="134" y="244"/>
      <point x="134" y="307" type="curve" smooth="yes"/>
      <point x="134" y="383"/>
      <point x="204" y="447"/>
      <point x="285" y="447" type="curve" smooth="yes"/>
      <point x="354" y="447"/>
      <point x="407" y="397"/>
      <point x="407" y="333" type="curve" smooth="yes"/>
      <point x="407" y="260"/>
      <point x="337" y="197"/>
    </contour>
    <contour>
      <point x="210" y="-157" type="curve" smooth="yes"/>
      <point x="96" y="-157"/>
      <point x="26" y="-128"/>
      <point x="26" y="-81" type="curve" smooth="yes"/>
      <point x="26" y="-45"/>
      <point x="64" y="-15"/>
      <point x="128" y="-3" type="curve"/>
      <point x="137" y="-5"/>
      <point x="146" y="-7"/>
      <point x="155" y="-8" type="curve" smooth="yes"/>
      <point x="321" y="-29" type="line" smooth="yes"/>
      <point x="359" y="-34"/>
      <point x="381" y="-52"/>
      <point x="381" y="-76" type="curve" smooth="yes"/>
      <point x="381" y="-124"/>
      <point x="312" y="-157"/>
    </contour>
  </outline>
</glyph>
<glyph name="gravecomb" format="2">
  <anchor x="355" y="501" name="_top"/>
  <outline>
    <contour>
      <point x="354" y="600" type="line"/>
      <point x="417" y="600" type="line"/>
      <point x="326" y="716" type="line"/>
      <point x="233" y="716" type="line"/>
    </contour>
  </outline>
</glyph>
<glyph name="questiondown.cap" format="2">
  <advance width="487"/>
  <outline>
    <contour>
      <point x="360" y="505" type="curve"/>
      <point x="298" y="505" type="line"/>
      <point x="288" y="437"/>
      <point x="262" y="396"/>
      <point x="207" y="365" type="curve" smooth="yes"/>
      <point x="145" y="330" type="line" smooth="yes"/>
      <point x="54" y="277"/>
      <point x="14" y="221"/>
      <point x="14" y="147" type="curve" smooth="yes"/>
      <point x="14" y="55"/>
      <point x="94" y="-7"/>
      <point x="207" y="-7" type="curve" smooth="yes"/>
      <point x="289" y="-7"/>
      <point x="371" y="31"/>
      <point x="438" y="98" type="curve"/>
      <point x="392" y="139" type="line"/>
      <point x="341" y="89"/>
      <point x="279" y="59"/>
      <point x="217" y="59" type="curve" smooth="yes"/>
      <point x="140" y="59"/>
      <point x="86" y="99"/>
      <point x="86" y="156" type="curve" smooth="yes"/>
      <point x="86" y="202"/>
      <point x="120" y="247"/>
      <point x="176" y="280" type="curve" smooth="yes"/>
      <point x="240" y="316" type="line" smooth="yes"/>
      <point x="313" y="357"/>
      <point x="346" y="410"/>
    </contour>
    <contour>
      <point x="366" y="710" type="curve" smooth="yes"/>
      <point x="336" y="710"/>
      <point x="309" y="683"/>
      <point x="309" y="654" type="curve" smooth="yes"/>
      <point x="309" y="628"/>
      <point x="328" y="608"/>
      <point x="354" y="608" type="curve" smooth="yes"/>
      <point x="384" y="608"/>
      <point x="410" y="635"/>
      <point x="410" y="665" type="curve" smooth="yes"/>
      <point x="410" y="690"/>
      <point x="391" y="710"/>
    </contour>
  </outline>
</glyph>
<glyph name="reversequotedblleft" format="2">
  <advance width="384"/>
  <outline>
    <contour>
      <point x="204" y="719" type="line"/>
      <point x="125" y="719" type="line"/>
      <point x="193" y="508" type="line"/>
      <point x="251" y="508" type="line"/>
    </contour>
    <contour>
      <point x="338" y="719" type="line"/>
      <point x="259" y="719" type="line"/>
      <point x="327" y="508" type="line"/>
      <point x="385" y="508" type="line"/>
    </contour>
  </outline>
</glyph>
<glyph name="reversequoteleft" format="2">
  <advance width="250"/>
  <outline>
    <contour>
      <point x="204" y="719" type="line"/>
      <point x="125" y="719" type="line"/>
      <point x="193" y="508" type="line"/>
      <point x="251" y="508" type="line"/>
    </contour>
  </outline>
</glyph>
<glyph name="uni0302" format="2">
  <anchor x="355" y="501" name="_top"/>
  <outline>
    <contour>
      <point x="233" y="596" type="line"/>
      <point x="295" y="596" type="line"/>
      <point x="394" y="676" type="line"/>
      <point x="458" y="596" type="line"/>
      <point x="516" y="596" type="line"/>
      <point x="440" y="717" type="line"/>
      <point x="361" y="717" type="line"/>
    </contour>
  </outline>
</glyph>
<glyph name="uni0326" format="2">
  <anchor x="248" y="0" name="_bottom"/>
  <outline>
    <contour>
      <point x="115" y="-264" type="line"/>
      <point x="170" y="-264" type="line"/>
      <point x="268" y="-85" type="line"/>
      <point x="193" y="-85" type="line"/>
    </contour>
  </outline>
</glyph>
